<?xml version="1.0" standalone="no"?>
<!DOCTYPE svg PUBLIC "-//W3C//DTD SVG 20010904//EN"
 "http://www.w3.org/TR/2001/REC-SVG-20010904/DTD/svg10.dtd">
<svg version="1.0" xmlns="http://www.w3.org/2000/svg"
 width="1024.000000pt" height="683.000000pt" viewBox="0 0 1024.000000 683.000000"
 preserveAspectRatio="xMidYMid meet">

<g transform="translate(0.000000,683.000000) scale(0.100000,-0.100000)"
fill="#000000" stroke="none">
<path d="M0 4567 c0 -1797 3 -2266 12 -2276 11 -10 15 -3 24 31 l11 43 8 -74
c4 -43 3 -76 -2 -80 -11 -7 -11 -6 -13 -161 -2 -96 -4 -109 -12 -80 l-11 35
-10 -29 c-7 -21 -6 -30 4 -37 8 -5 9 -9 3 -9 -8 0 -12 -271 -13 -965 l-2 -965
5120 0 5121 0 0 3415 0 3415 -5120 0 -5120 0 0 -2263z m1285 -597 c8 0 15 -13
17 -32 2 -22 8 -32 17 -30 9 2 11 -3 6 -15 -10 -22 -9 -53 2 -64 4 -4 9 3 9
16 1 15 -2 22 -9 18 -6 -3 -7 -1 -3 6 21 34 34 -24 38 -172 3 -93 4 -98 23
-93 16 4 21 0 21 -14 0 -23 -1 -23 -27 -9 -18 9 -20 7 -18 -29 2 -30 7 -39 18
-37 9 1 16 12 15 24 0 16 5 21 25 21 23 -1 24 -2 8 -11 -12 -7 -15 -17 -11
-35 5 -19 3 -23 -10 -18 -9 3 -16 1 -16 -5 0 -6 -6 -11 -13 -11 -20 0 -20 -57
0 -69 16 -9 16 -10 -5 -11 -14 0 -21 -4 -17 -11 4 -6 13 -8 21 -5 10 4 11 0 4
-20 -6 -14 -10 -27 -10 -30 0 -9 26 2 37 16 11 13 12 12 7 -5 -4 -16 -2 -15 9
4 l14 23 6 -32 c4 -18 4 -37 1 -42 -4 -6 -1 -8 7 -6 8 3 13 14 12 24 -2 15 -1
15 9 -4 9 -19 17 -21 47 -17 28 4 31 3 11 -4 l-25 -8 30 -5 30 -4 -25 -11 -25
-12 29 0 c25 -1 28 2 22 24 -7 27 3 32 22 13 8 -8 15 -8 25 0 11 9 16 7 26
-14 8 -18 8 -23 0 -18 -8 4 -9 -1 -5 -17 3 -13 3 -18 0 -11 -3 6 -10 10 -15 6
-5 -3 -9 -1 -9 5 0 5 5 13 10 16 6 3 10 11 10 17 0 6 -8 3 -19 -8 -10 -10 -16
-23 -12 -29 3 -5 6 -27 6 -48 0 -30 -2 -35 -10 -22 -28 47 -30 48 -48 30 -9
-9 -21 -13 -27 -10 -5 3 -10 -1 -10 -9 0 -9 -4 -16 -10 -16 -5 0 -9 -5 -7 -12
1 -7 -11 -15 -28 -19 -16 -4 -22 -7 -12 -8 10 0 15 -6 11 -12 -4 -7 -11 -6
-21 4 -18 18 -9 39 12 30 11 -4 13 -1 9 11 -4 11 0 16 12 17 12 0 14 3 6 6 -7
3 -21 -2 -31 -11 -10 -9 -21 -13 -24 -9 -4 3 -7 -4 -7 -16 0 -12 -6 -24 -14
-27 -13 -5 -13 -11 -1 -45 8 -22 10 -39 5 -39 -9 0 -14 14 -12 32 1 3 -5 11
-12 18 -20 16 -32 -25 -14 -48 12 -15 11 -16 -4 -3 -10 7 -18 27 -18 44 0 17
-2 28 -4 26 -11 -11 -59 -1338 -58 -1616 0 -93 -3 -153 -9 -153 -6 0 -7 -4 -4
-10 3 -5 -1 -8 -9 -5 -9 3 -23 7 -31 10 -11 3 -13 10 -5 29 6 17 6 27 -1 32
-7 4 -9 28 -6 63 4 36 3 49 -3 36 -5 -11 -9 -37 -9 -57 -1 -22 -6 -38 -13 -38
-6 0 -8 -3 -5 -7 10 -9 -13 -33 -32 -32 -12 0 -11 2 4 8 20 8 20 8 -1 15 -16
5 -20 13 -17 39 2 29 2 30 -6 7 -6 -18 -9 -20 -10 -7 -1 10 -8 20 -16 23 -14
6 -13 8 2 19 15 11 15 17 5 40 -7 14 -10 31 -7 36 4 5 2 9 -3 9 -5 0 -5 27 -1
63 4 34 13 148 19 252 6 105 15 258 21 340 29 423 28 677 -1 970 -5 55 -12
125 -15 155 -6 62 -22 100 -42 100 -8 0 -12 4 -8 10 3 5 11 7 18 4 15 -6 17
16 10 118 -4 68 -7 76 -24 73 -10 -2 -19 0 -19 6 0 5 8 9 18 9 12 0 17 8 17
30 0 17 -3 30 -7 30 -4 0 -4 8 -1 18 6 15 5 15 -10 3 -14 -11 -17 -11 -18 0 0
11 -2 11 -6 1 -3 -9 -10 -4 -19 13 -8 15 -14 28 -14 30 0 1 16 1 35 0 24 -1
35 3 35 13 0 8 -6 12 -15 8 -8 -3 -15 -1 -15 5 0 5 12 14 27 20 22 8 24 12 13
19 -12 7 -8 11 17 16 22 4 30 11 26 21 -4 10 -9 11 -16 4 -6 -6 -15 -11 -20
-11 -5 0 -1 7 7 16 10 9 24 13 36 9 25 -8 26 3 3 21 -17 13 -17 14 1 7 15 -5
18 -3 13 10 -3 9 -2 19 3 22 14 9 51 -18 45 -33 -3 -7 0 -10 6 -7 6 4 8 13 6
19 -3 7 4 18 15 25 16 10 19 9 16 -5 -2 -9 3 -19 10 -21 21 -8 13 17 -15 44
-16 15 -22 23 -15 19 7 -4 12 -2 13 6 1 7 3 5 6 -4 2 -10 11 -18 18 -18z m-41
-9 c3 -5 -1 -11 -9 -15 -15 -6 -29 7 -18 18 9 9 21 8 27 -3z m766 -67 c0 -8
-5 -12 -10 -9 -6 4 -8 11 -5 16 9 14 15 11 15 -7z m547 -16 c-3 -8 -6 -5 -6 6
-1 11 2 17 5 13 3 -3 4 -12 1 -19z m-602 -16 c-3 -3 -11 0 -18 7 -9 10 -8 11
6 5 10 -3 15 -9 12 -12z m732 -14 c-3 -8 -6 -5 -6 6 -1 11 2 17 5 13 3 -3 4
-12 1 -19z m-420 -45 c1 -22 -1 -24 -8 -10 -6 9 -7 22 -4 27 9 14 10 13 12
-17z m-297 -9 c0 -14 -4 -23 -9 -20 -5 3 -7 15 -4 26 7 28 13 25 13 -6z m595
6 c3 -6 -1 -7 -9 -4 -18 7 -21 14 -7 14 6 0 13 -4 16 -10z m-1715 -4 c0 -2 -7
-7 -16 -10 -8 -3 -12 -2 -9 4 6 10 25 14 25 6z m1143 -11 c-3 -9 -8 -14 -10
-11 -3 3 -2 9 2 15 9 16 15 13 8 -4z m465 -72 c-7 -9 -5 -17 6 -28 19 -20 21
-35 4 -35 -9 0 -8 -4 2 -10 8 -5 10 -10 3 -10 -6 0 -9 -9 -6 -20 3 -11 9 -17
14 -14 5 3 6 10 3 16 -5 7 -2 8 6 3 9 -5 10 -2 6 12 -5 14 1 21 25 30 18 7 37
10 43 6 6 -3 6 0 -1 7 -10 11 -18 11 -38 2 -32 -15 -35 -15 -35 -2 0 6 6 10
14 10 9 0 14 9 13 20 -1 11 -6 20 -11 20 -6 0 -5 5 2 12 8 8 8 15 1 24 -7 9
-5 14 8 18 23 7 81 1 91 -9 4 -4 -3 -4 -15 -1 -19 6 -22 4 -17 -11 4 -10 14
-24 22 -30 13 -11 13 -13 1 -13 -20 1 -44 22 -44 40 0 8 -8 16 -17 18 -10 2
-18 -1 -18 -7 0 -6 8 -11 18 -12 16 0 16 -1 0 -7 -15 -6 -13 -9 12 -20 19 -9
30 -22 31 -35 1 -17 2 -18 6 -4 2 9 9 17 14 17 6 0 9 -8 7 -17 -1 -10 1 -24 5
-30 5 -7 5 -13 0 -13 -4 0 -8 -18 -8 -40 0 -22 3 -40 7 -40 5 0 8 9 8 20 0 11
4 20 9 20 4 0 7 12 5 28 l-4 27 14 -29 c8 -18 16 -24 20 -17 4 6 4 16 0 23 -4
7 -3 8 5 4 6 -4 13 0 17 11 3 10 10 26 15 35 5 10 9 25 9 34 0 14 2 14 15 0
18 -17 20 -40 3 -30 -7 5 -8 3 -3 -6 6 -10 12 -7 26 11 16 21 18 22 24 6 4 -9
12 -14 17 -11 6 4 8 -3 4 -17 -3 -13 -3 -18 0 -12 4 10 9 9 20 -2 8 -8 21 -12
29 -9 8 4 15 1 15 -6 0 -6 -5 -8 -12 -4 -7 5 -8 3 -4 -5 5 -7 14 -10 21 -7 7
2 12 -2 11 -11 -2 -23 41 -24 47 -1 3 10 1 18 -4 18 -5 0 -9 -4 -9 -10 0 -5
-4 -10 -10 -10 -5 0 -10 7 -10 15 0 8 -4 15 -8 15 -14 0 -10 29 5 34 8 4 13
-3 14 -17 1 -16 3 -17 6 -5 2 10 10 15 19 11 10 -4 14 2 14 20 0 37 -12 87
-19 82 -4 -2 -12 -1 -18 3 -7 5 -3 11 11 18 17 8 23 8 23 0 -2 -27 16 -107 26
-113 6 -4 8 2 5 15 -4 12 -2 20 3 16 5 -3 9 -12 9 -20 0 -8 4 -12 10 -9 6 4 7
-1 3 -11 -4 -11 -3 -15 5 -10 6 3 14 1 18 -5 4 -8 3 -9 -4 -5 -7 4 -12 2 -12
-3 0 -6 -8 -11 -17 -11 -12 0 -14 3 -6 8 8 5 9 13 3 22 -7 11 -10 12 -10 2 0
-7 -4 -11 -9 -8 -5 3 -11 -1 -15 -9 -3 -8 -1 -15 5 -15 6 0 8 -9 4 -19 -3 -11
-1 -22 5 -26 5 -3 10 2 10 12 1 17 1 17 14 1 7 -10 16 -14 21 -10 4 4 4 -4 0
-18 -4 -14 -12 -28 -17 -31 -6 -4 -6 -9 1 -13 14 -9 14 -49 0 -63 -6 -6 -19
-9 -28 -6 -14 4 -14 3 -1 -6 8 -6 15 -15 15 -21 0 -5 5 -10 10 -9 6 1 9 5 7
11 -1 5 3 8 10 5 7 -2 21 3 31 11 16 15 17 14 11 -1 -3 -9 -11 -17 -16 -17 -6
0 -6 -6 1 -14 10 -11 7 -19 -10 -35 -13 -12 -18 -21 -11 -21 6 0 14 5 17 10 4
6 11 8 16 5 5 -4 9 0 9 8 0 10 7 13 20 10 16 -4 19 -2 14 13 -5 15 -4 16 4 4
12 -16 7 -30 -11 -30 -7 0 -13 -9 -14 -20 -2 -18 8 -25 30 -21 11 2 8 -14 -5
-28 -11 -11 -10 -13 5 -8 9 4 17 3 17 -2 0 -23 -13 -71 -20 -71 -4 0 -5 11 -3
24 3 13 -1 27 -8 31 -9 6 -11 3 -6 -8 7 -18 -10 -67 -28 -79 -6 -5 -5 -8 3 -8
7 0 16 8 20 18 9 22 57 29 48 7 -4 -11 -2 -14 6 -9 7 5 9 0 6 -14 -4 -12 -2
-22 3 -22 16 0 10 59 -7 68 -15 9 -16 11 -1 32 14 20 14 25 -4 56 -23 42 -24
54 -3 54 10 0 14 6 11 15 -4 8 -2 17 4 21 6 3 8 12 5 19 -3 8 5 16 20 19 13 4
24 11 24 17 0 6 -4 7 -10 4 -6 -3 -7 1 -4 9 3 9 9 15 12 14 29 -3 34 3 16 18
-10 8 -13 13 -6 9 6 -3 12 -1 12 5 0 6 5 8 10 5 13 -8 13 11 0 35 -6 10 -6 21
-2 24 12 7 31 -7 30 -24 -2 -36 3 -50 18 -50 13 0 14 3 5 14 -8 10 -9 16 -1
21 5 3 10 12 9 18 0 9 -2 9 -6 0 -2 -7 -9 -13 -15 -13 -7 0 -7 5 1 13 6 8 9
17 6 21 -3 3 1 2 7 -4 7 -5 15 -10 19 -10 11 0 7 54 -5 63 -7 6 -6 7 4 4 8 -2
23 0 33 5 11 6 17 5 17 -2 0 -6 5 -8 11 -4 7 4 10 1 7 -7 -3 -8 -1 -23 4 -34
8 -19 8 -19 -5 -2 -18 21 -31 22 -23 1 3 -9 2 -12 -5 -8 -6 3 -9 15 -6 25 3
11 1 19 -4 19 -5 0 -9 -13 -9 -30 0 -16 5 -30 10 -30 6 0 8 -11 4 -25 -4 -16
-2 -25 6 -25 7 0 10 7 6 16 -4 11 -2 15 8 11 11 -4 13 -1 9 10 -4 11 -2 14 5
9 7 -4 12 -14 12 -22 0 -10 5 -12 13 -8 9 6 9 4 -1 -8 -9 -11 -10 -23 -2 -42
5 -15 9 -30 8 -34 -6 -22 16 -51 40 -54 22 -2 27 -8 26 -30 -1 -18 4 -28 13
-28 8 0 12 4 9 9 -8 12 14 8 39 -7 19 -11 18 -11 -10 -12 -35 -1 -76 -27 -59
-38 7 -4 8 -15 3 -29 -11 -29 -19 -30 -12 -2 4 16 2 20 -8 17 -16 -6 -15 -82
2 -125 8 -21 12 -23 24 -13 13 11 14 10 9 -4 -4 -10 -13 -15 -21 -11 -12 4
-14 -1 -9 -27 6 -36 17 -101 21 -133 1 -11 4 -20 5 -20 1 0 3 -13 5 -30 1 -16
3 -30 5 -30 1 0 3 -10 4 -22 3 -28 8 -34 34 -36 17 -1 19 -4 9 -15 -14 -18
-20 -55 -7 -47 5 3 10 14 11 23 0 11 2 12 6 4 2 -6 8 -10 13 -7 5 3 7 -3 5
-12 -1 -10 -7 -17 -11 -16 -11 2 -12 -52 -2 -63 4 -4 5 -18 1 -32 -5 -23 -4
-24 9 -11 15 14 13 38 -5 50 -7 5 -2 20 20 58 2 2 12 -4 24 -15 12 -10 24 -19
28 -19 3 0 5 -10 3 -22 -2 -15 3 -23 12 -23 8 0 20 -8 25 -17 7 -12 10 -13 11
-5 0 8 -9 21 -21 31 -20 16 -20 18 -4 31 13 11 18 11 25 1 5 -9 9 -10 14 -2 4
6 12 9 17 6 5 -4 9 0 9 7 0 9 3 9 10 -2 8 -13 11 -12 24 5 9 11 16 23 16 28 0
11 30 8 30 -4 0 -5 -4 -8 -9 -4 -12 7 -25 -31 -16 -45 9 -15 25 -12 25 6 0 9
-5 12 -12 8 -7 -4 -8 -3 -4 4 5 9 13 9 28 1 17 -9 19 -8 14 9 -5 13 -1 22 10
26 22 9 33 -2 14 -14 -8 -6 -12 -10 -8 -10 3 0 14 -3 24 -7 11 -4 15 -3 11 4
-5 7 0 9 14 6 13 -4 16 -8 10 -13 -15 -8 -3 -40 22 -62 22 -20 28 -22 26 -10
-1 4 4 23 12 42 7 19 12 38 11 43 -1 4 3 7 9 7 5 0 9 8 8 18 -3 23 11 53 21
47 5 -3 6 9 3 26 -3 21 -1 29 7 24 7 -4 9 1 5 18 -4 14 -2 28 4 32 6 3 8 11 5
17 -4 6 0 14 7 19 12 8 12 11 -1 19 -10 6 -11 10 -2 10 6 0 12 8 12 18 0 9 7
36 15 59 8 23 16 56 17 73 2 21 7 29 16 25 7 -2 15 2 19 10 4 12 9 13 19 4 17
-14 18 -49 2 -49 -9 0 -8 -4 2 -11 8 -6 11 -12 5 -15 -5 -2 -9 -26 -9 -52 1
-27 -2 -73 -7 -103 -4 -30 -10 -74 -13 -99 -3 -25 -8 -67 -12 -95 -4 -27 -8
-71 -8 -97 -1 -27 -4 -48 -8 -48 -18 0 -6 -38 12 -43 11 -3 20 -11 19 -19 0
-10 -2 -10 -6 0 -7 17 -43 15 -43 -3 0 -9 6 -12 17 -8 10 4 14 2 10 -4 -4 -6
0 -13 8 -16 8 -4 16 2 20 14 4 11 9 18 11 16 3 -2 -1 -16 -7 -31 -9 -20 -15
-23 -21 -14 -6 9 -8 7 -5 -7 5 -27 -31 -98 -45 -89 -7 4 -8 3 -4 -4 4 -7 -5
-29 -19 -49 -14 -21 -25 -42 -25 -46 0 -5 28 -41 62 -79 56 -63 60 -72 45 -83
-9 -7 -17 -17 -17 -24 0 -6 -7 -11 -16 -11 -8 0 -12 -4 -9 -10 3 -6 -1 -10 -9
-10 -27 0 -56 50 -57 99 -1 42 -2 43 -9 16 -18 -69 -30 -127 -30 -148 0 -13
-3 -27 -7 -31 -8 -7 -8 -11 -11 -51 -1 -11 -13 -33 -27 -49 -14 -16 -25 -37
-25 -46 0 -9 -9 -25 -20 -35 -16 -15 -20 -31 -20 -89 0 -48 -7 -85 -19 -113
-11 -23 -18 -43 -16 -45 2 -2 11 -30 19 -62 12 -46 13 -62 3 -78 -9 -16 -9
-22 1 -25 6 -3 9 -10 5 -16 -3 -7 -2 -9 2 -4 9 8 45 -20 45 -35 0 -5 9 -28 20
-50 23 -47 23 -48 12 -48 -5 0 -13 12 -20 28 -11 25 -11 24 -7 -15 6 -50 -2
-56 -17 -12 -14 39 -21 31 -13 -15 6 -31 10 -35 34 -32 14 2 20 1 14 -1 -7 -2
-13 -8 -13 -13 0 -4 -9 -6 -20 -3 -11 3 -20 9 -20 14 0 5 -4 9 -9 9 -5 0 -8
-14 -7 -31 2 -28 1 -30 -11 -13 -12 16 -15 17 -23 4 -7 -10 -10 -11 -10 -2 0
7 7 15 15 19 13 4 12 8 -6 21 -18 12 -23 13 -30 1 -6 -10 -9 -8 -9 9 0 26 -6
28 -28 6 -15 -15 -14 -17 2 -30 10 -7 15 -18 11 -24 -8 -13 -45 21 -45 40 0 6
-4 8 -10 5 -6 -3 -7 1 -4 9 3 9 15 16 25 16 16 0 17 4 9 25 -5 14 -7 33 -4 42
2 10 -1 8 -7 -5 -15 -28 -29 -28 -29 1 0 16 -3 18 -9 8 -7 -10 -13 -11 -30 -2
-11 7 -21 8 -21 4 0 -4 -7 1 -15 11 -13 17 -15 18 -15 3 0 -9 -6 -18 -12 -18
-7 -1 -24 -3 -38 -4 -14 -2 -33 2 -43 7 -24 12 -59 19 -53 10 2 -4 -2 -13 -10
-20 -11 -10 -14 -10 -14 0 0 13 -14 14 -105 6 -16 -2 -34 -7 -38 -13 -5 -5 -5
0 -2 13 4 13 2 22 -4 22 -10 0 -16 -38 -12 -63 1 -5 -3 -6 -8 -3 -5 3 -7 16
-4 29 3 12 1 18 -4 12 -4 -5 -19 -11 -33 -13 -28 -3 -44 -23 -27 -34 7 -4 8
-8 2 -8 -20 0 -38 17 -26 24 27 17 4 24 -79 24 -49 0 -90 -5 -90 -9 0 -5 -5
-9 -11 -9 -5 0 -7 4 -4 10 3 6 -1 7 -9 4 -18 -7 -22 -24 -6 -24 6 0 10 -5 10
-11 0 -6 -6 -9 -14 -6 -8 3 -17 1 -19 -6 -2 -7 -2 -2 0 11 2 12 -1 22 -7 22
-6 0 -9 4 -6 9 7 11 -104 9 -121 -2 -8 -5 -13 -3 -14 5 0 7 -7 0 -15 -17 -13
-28 -14 -28 -12 -5 3 22 -1 25 -34 27 -42 4 -47 -3 -20 -23 15 -13 14 -13 -8
-5 -14 4 -25 14 -26 22 -2 30 -5 31 -26 13 -12 -10 -18 -14 -14 -7 11 20 -4
62 -20 56 -8 -3 -14 -1 -14 4 0 17 40 12 40 -5 1 -14 3 -14 12 3 15 24 22 98
8 75 -7 -12 -9 -10 -7 7 0 12 4 20 8 17 4 -2 6 7 5 20 0 13 -4 22 -7 20 -4 -2
-6 8 -6 21 0 14 3 27 6 30 4 2 4 29 1 60 -3 31 -3 58 1 60 7 5 3 85 -5 93 -13
13 -27 -14 -24 -45 4 -31 3 -33 -9 -17 -7 10 -11 26 -8 35 3 9 -1 24 -10 32
-8 9 -15 21 -15 27 0 6 -7 13 -15 16 -8 4 -15 14 -15 24 0 11 -5 22 -10 25 -6
4 -8 -7 -4 -29 3 -22 1 -36 -5 -36 -8 0 -11 -77 -11 -239 l0 -240 23 -3 c15
-2 7 -7 -25 -14 -38 -9 -52 -8 -68 3 -19 13 -19 15 -2 41 10 15 12 23 4 18
-23 -14 -37 10 -34 58 2 25 8 46 13 46 12 0 11 42 -1 75 -7 20 -7 27 4 31 16
6 29 44 16 44 -5 0 -8 19 -8 42 0 23 -5 44 -11 46 -7 2 -5 9 5 19 12 12 12 18
3 23 -6 4 -8 13 -5 19 5 7 2 10 -6 9 -9 -2 -13 8 -13 34 0 20 -3 40 -7 44 -5
4 -8 16 -8 26 0 20 -16 24 -23 6 -3 -7 -6 -3 -6 10 -1 12 -6 21 -12 20 -6 -2
-14 3 -16 10 -3 7 5 12 19 13 17 1 18 3 6 6 -10 2 -18 12 -19 21 -1 9 -6 2
-11 -15 -6 -18 -18 -33 -26 -33 -12 0 -12 3 -1 18 13 15 12 16 -4 3 -11 -9
-15 -21 -12 -35 6 -20 6 -20 -9 -2 -11 13 -13 23 -6 31 7 9 3 17 -15 29 -14 9
-25 22 -25 28 0 6 10 2 23 -10 29 -27 41 -28 25 -3 -19 31 -48 33 -59 5 -12
-32 -11 -37 1 -29 6 3 10 2 10 -4 0 -16 -38 -33 -45 -21 -3 5 -1 10 4 10 6 0
11 5 11 11 0 6 -6 9 -14 6 -8 -3 -17 2 -21 11 -6 15 -8 15 -21 -2 -14 -19 -14
-19 -14 2 0 13 6 22 15 22 8 0 15 4 15 9 0 5 -9 7 -20 4 -18 -5 -26 -32 -21
-65 0 -5 -3 -8 -9 -8 -5 0 -10 6 -10 13 0 6 -5 4 -11 -5 -5 -10 -15 -18 -22
-18 -9 0 -9 2 -1 8 6 4 14 16 18 28 5 18 3 20 -22 16 -25 -3 -29 -1 -27 20 1
12 -2 32 -8 43 -9 17 -8 18 5 7 13 -10 18 -9 28 3 11 13 10 14 -4 9 -17 -7
-23 11 -6 21 6 4 8 11 4 16 -3 5 -14 -1 -25 -13 l-19 -23 6 27 c5 23 3 26 -15
21 -12 -3 -21 -1 -21 4 0 6 16 9 36 7 23 -1 34 1 31 9 -2 7 -17 11 -32 10
l-27 -2 29 24 c31 27 20 34 -15 9 -13 -9 -22 -11 -22 -4 0 6 -4 9 -9 5 -5 -3
-12 -1 -15 4 -3 4 2 8 12 8 9 -1 37 5 62 12 25 7 50 14 55 16 21 5 30 -1 27
-17 -2 -11 3 -18 12 -18 9 0 16 8 16 19 0 10 7 22 16 25 13 5 14 9 4 22 -11
12 -15 12 -21 2 -6 -8 -9 -1 -9 20 0 35 -13 42 -28 15 -9 -14 -10 -14 -16 5
-4 12 -12 22 -18 22 -6 0 -7 -8 -3 -17 3 -10 7 -22 8 -28 1 -5 6 -13 12 -17 5
-4 6 -10 2 -14 -10 -10 -36 27 -30 42 2 7 0 15 -6 18 -6 4 -8 13 -5 20 3 8 1
17 -5 21 -7 3 -8 0 -5 -9 3 -9 2 -16 -4 -16 -6 0 -17 -3 -25 -6 -8 -3 -17 2
-21 12 -5 14 -4 15 8 5 11 -9 14 -7 14 14 0 19 -5 25 -15 21 -9 -4 -11 -2 -7
6 4 6 -1 17 -11 25 -17 12 -17 13 11 14 16 1 22 3 12 6 -14 3 -18 14 -16 41
l1 37 4 -32 c5 -40 19 -44 17 -5 0 15 4 30 10 34 6 4 16 22 23 40 6 18 12 25
12 15 1 -14 4 -15 20 -5 15 9 17 15 9 25 -8 10 -6 13 6 13 9 0 16 4 16 10 0 6
-9 6 -22 1 -22 -8 -23 -6 -22 37 1 31 7 49 20 59 17 12 17 13 -3 13 -12 0 -23
-6 -26 -12 -2 -8 -8 -9 -13 -4 -5 5 -4 10 2 13 6 2 9 15 6 28 -6 32 -59 46
-79 19 -14 -19 -14 -19 -32 11 l-13 20 7 -20 c4 -11 9 -25 12 -31 2 -6 -2 -14
-11 -17 -8 -3 -17 1 -20 9 -3 9 -1 12 4 9 6 -3 10 -1 10 4 0 6 -12 11 -27 12
-16 0 -22 3 -15 6 6 2 12 9 12 14 0 6 -4 7 -10 4 -5 -3 -10 1 -10 9 0 9 -7 16
-15 16 -8 0 -15 -5 -15 -11 0 -5 -4 -7 -10 -4 -5 3 -10 2 -10 -4 0 -5 8 -15
18 -20 9 -6 12 -11 6 -11 -5 0 -16 6 -22 12 -10 10 -15 10 -22 -2 -11 -17 -12
-12 -11 50 0 25 -2 39 -5 33 -11 -25 -33 -13 -38 20 -3 17 -8 89 -11 159 l-6
126 32 16 c17 9 35 13 40 10 5 -2 6 20 4 50 -4 36 -1 57 7 62 8 5 6 10 -8 16
-17 8 -17 8 2 4 12 -2 26 -1 31 3 15 10 43 59 43 75 0 8 14 20 30 28 17 7 30
21 30 30 0 10 6 18 14 18 11 0 13 -7 6 -29 -4 -16 -6 -32 -2 -35 14 -14 22 -3
22 30 0 19 4 33 9 29 5 -3 11 1 13 8 2 10 11 11 36 5 22 -6 32 -14 29 -23 -3
-7 1 -16 9 -19 11 -4 14 -1 9 13 -5 16 -2 18 15 14 11 -3 20 -12 20 -20 0 -8
5 -11 10 -8 6 4 8 10 5 15 -3 4 0 10 7 12 7 3 8 10 4 17 -7 10 -10 10 -16 1
-5 -8 -9 -8 -13 3 -6 15 4 16 34 3 11 -5 15 -15 12 -29 -3 -16 -2 -18 5 -8 7
9 11 10 17 2 12 -21 -2 -40 -27 -35 l-23 5 23 -12 c12 -7 25 -9 29 -5 11 10
13 77 3 71 -13 -8 -12 6 0 25 7 10 10 11 10 2 0 -8 8 -10 25 -6 21 5 24 3 19
-12 -5 -15 -4 -16 5 -4 7 11 6 19 -5 32 -15 15 -14 16 5 11 12 -3 21 -9 21
-13 0 -4 11 -10 25 -12 17 -4 25 -1 25 9 0 8 -5 11 -12 7 -7 -5 -8 -3 -3 5 11
19 29 -4 20 -26 -26 -57 0 -72 36 -21 16 21 18 30 8 26 -10 -4 -15 1 -15 13 0
25 13 24 26 -1 6 -11 18 -20 28 -20 15 0 15 2 2 10 -10 6 -11 10 -2 10 6 0 12
8 12 18 0 14 2 15 10 2 8 -12 10 -9 10 13 0 20 4 26 12 21 20 -13 51 -13 38 0
-7 7 -1 14 18 21 l27 12 -32 -1 c-26 -1 -33 -5 -34 -21 0 -11 -3 -14 -6 -7 -2
6 -12 12 -20 12 -13 0 -13 3 -2 16 8 10 9 18 2 22 -6 4 -13 17 -17 30 -4 12
-15 22 -24 22 -12 0 -13 -3 -4 -12 7 -7 12 -16 12 -22 0 -18 -29 29 -30 47 0
14 4 16 19 7 25 -13 44 -13 36 0 -4 6 -10 8 -15 5 -4 -3 -13 2 -20 10 -11 13
-10 14 4 9 13 -5 15 -1 11 27 -4 24 -3 28 3 15 10 -24 20 -10 17 24 -4 43 9
47 16 5 4 -23 3 -45 -3 -52z m-108 61 c0 -2 -7 -4 -15 -4 -8 0 -15 4 -15 10 0
5 7 7 15 4 8 -4 15 -8 15 -10z m-1340 -44 c-9 -5 -10 -22 -6 -54 4 -26 11 -44
17 -41 5 4 9 -4 9 -15 0 -13 8 -24 19 -27 10 -3 21 -16 24 -29 3 -18 1 -24 -9
-20 -10 4 -14 -5 -15 -32 0 -20 -3 -31 -6 -24 -2 6 -13 12 -24 12 -10 0 -19 7
-19 15 0 9 -9 15 -25 15 -24 0 -32 -10 -18 -24 4 -3 7 -15 8 -26 1 -16 -1 -17
-12 -8 -8 6 -13 7 -12 2 1 -5 1 -18 0 -29 -2 -16 -4 -14 -16 10 -12 27 -13 27
-14 8 -1 -21 -5 -22 -48 -18 -27 2 -40 2 -30 -1 22 -7 12 -24 -13 -24 -24 0
-54 -44 -46 -66 4 -10 -5 -29 -24 -50 -34 -39 -39 -57 -12 -47 15 6 16 5 2
-11 -8 -11 -16 -14 -18 -7 -2 6 -8 11 -14 11 -6 0 -8 -7 -4 -15 4 -10 -1 -15
-14 -15 -13 0 -20 7 -20 19 0 10 -9 21 -20 24 -11 3 -20 1 -20 -4 0 -5 7 -9
16 -9 8 0 12 -5 9 -10 -4 -6 -11 -8 -16 -5 -5 4 -9 -3 -9 -13 0 -11 -7 -25
-15 -32 -12 -10 -15 -10 -15 0 0 10 -3 10 -15 0 -8 -7 -15 -21 -15 -32 0 -10
-4 -17 -9 -14 -4 3 -7 17 -6 30 2 18 -1 23 -11 19 -12 -4 -12 -8 -2 -21 11
-13 9 -14 -15 -8 -19 4 -26 3 -22 -4 3 -5 14 -10 23 -11 9 0 -3 -6 -28 -13
-26 -7 -48 -8 -51 -2 -4 5 -18 7 -32 4 -14 -3 -32 -1 -39 3 -10 7 -10 9 0 9 6
0 12 4 12 10 0 5 -10 9 -22 7 -17 -1 -23 3 -23 18 0 16 6 19 26 17 17 -1 29 3
32 13 4 8 3 14 -1 14 -18 -3 -39 3 -55 15 -15 12 -16 17 -6 34 7 11 19 18 26
15 7 -3 13 0 13 7 0 6 5 8 10 5 6 -3 10 2 11 12 0 14 2 15 7 3 4 -8 15 -16 25
-16 20 -2 21 -1 5 29 -6 12 -14 29 -19 37 -4 8 -13 14 -21 12 -9 -3 -10 0 -2
8 8 8 19 8 38 0 17 -6 25 -6 21 0 -3 6 -13 10 -21 10 -8 0 -14 7 -14 15 0 8 4
15 10 15 5 0 -1 10 -13 23 -12 13 -29 21 -37 18 -8 -2 -3 6 12 17 14 12 31 22
37 22 6 0 11 5 11 10 0 6 7 10 15 10 8 0 15 -4 15 -10 0 -5 8 -10 18 -9 10 0
12 3 5 6 -23 9 -14 20 27 33 21 7 37 17 34 22 -8 13 16 38 37 38 11 0 19 5 19
11 0 6 -10 8 -22 5 -13 -3 -17 -3 -10 0 10 5 9 9 -5 20 -17 12 -16 13 5 7 12
-3 22 -1 22 6 0 5 6 8 13 5 7 -2 26 7 41 21 15 14 32 25 39 26 7 0 3 4 -8 9
-17 7 -14 9 14 9 26 1 32 -2 27 -15 -3 -8 -2 -12 4 -9 6 3 10 13 10 21 0 8 4
13 9 10 5 -3 14 1 21 9 8 9 17 12 24 7 6 -5 31 -14 55 -20 35 -9 47 -8 58 4
19 18 27 18 19 -1 -3 -8 -1 -15 5 -15 5 0 12 7 15 15 9 22 24 18 24 -6 0 -11
-4 -17 -10 -14 -5 3 -10 1 -10 -5 0 -7 6 -10 14 -7 8 3 17 1 20 -6 3 -7 3 0 0
14 -4 18 -1 28 10 32 9 4 17 14 17 24 1 11 3 9 6 -6 3 -13 -1 -27 -7 -31z
m935 32 c-3 -3 -11 0 -18 7 -9 10 -8 11 6 5 10 -3 15 -9 12 -12z m1018 3 c-3
-9 -8 -14 -10 -11 -3 3 -2 9 2 15 9 16 15 13 8 -4z m-2133 1 c0 -2 -7 -6 -15
-10 -8 -3 -15 -1 -15 4 0 6 7 10 15 10 8 0 15 -2 15 -4z m1145 -16 c3 -5 1
-10 -4 -10 -6 0 -11 5 -11 10 0 6 2 10 4 10 3 0 8 -4 11 -10z m361 -25 c-3 -9
-10 -13 -16 -10 -5 3 -9 -2 -8 -12 0 -10 0 -27 0 -38 -2 -18 -3 -18 -18 3 -8
12 -20 20 -25 17 -5 -4 -9 -1 -9 4 0 6 7 11 15 11 8 0 15 -4 15 -10 0 -5 5
-10 11 -10 5 0 7 5 4 11 -10 16 16 72 28 60 5 -5 7 -17 3 -26z m-381 -12 c4
-14 2 -23 -4 -23 -6 0 -11 6 -11 14 0 8 -3 23 -6 33 -5 12 -4 15 3 8 6 -5 14
-20 18 -32z m120 27 c3 -5 1 -10 -4 -10 -6 0 -11 5 -11 10 0 6 2 10 4 10 3 0
8 -4 11 -10z m815 0 c0 -5 -5 -10 -11 -10 -5 0 -7 5 -4 10 3 6 8 10 11 10 2 0
4 -4 4 -10z m34 -6 c3 -9 6 -23 5 -32 0 -11 -2 -12 -6 -4 -2 6 -9 10 -13 7 -5
-3 -11 -1 -15 5 -3 5 2 10 12 11 10 0 13 3 6 6 -15 5 -17 23 -4 23 5 0 12 -7
15 -16z m-911 -8 c4 -9 -4 -13 -26 -14 l-32 -1 25 14 c14 8 26 14 26 15 1 0 4
-6 7 -14z m777 -13 c13 -14 12 -14 -10 -2 -14 7 -26 12 -27 11 -9 -6 -23 0
-23 9 0 14 40 2 60 -18z m-432 -18 c1 -19 -3 -37 -8 -40 -11 -7 -14 34 -4 59
9 23 11 20 12 -19z m127 15 c-3 -5 -1 -10 6 -10 7 0 10 -3 6 -6 -9 -9 -28 6
-22 17 4 5 8 9 11 9 3 0 2 -4 -1 -10z m760 0 c3 -5 1 -10 -4 -10 -6 0 -11 5
-11 10 0 6 2 10 4 10 3 0 8 -4 11 -10z m-2228 -22 c-3 -8 -6 -5 -6 6 -1 11 2
17 5 13 3 -3 4 -12 1 -19z m58 -6 c-21 -5 -45 5 -45 17 0 5 13 4 31 -2 21 -8
26 -13 14 -15z m1006 5 c-10 -9 -11 -8 -5 6 3 10 9 15 12 12 3 -3 0 -11 -7
-18z m599 9 c0 -3 -4 -8 -10 -11 -5 -3 -10 -1 -10 4 0 6 5 11 10 11 6 0 10 -2
10 -4z m-683 -38 c-3 -8 -6 -5 -6 6 -1 11 2 17 5 13 3 -3 4 -12 1 -19z m647
10 c-3 -4 -9 -8 -15 -8 -5 0 -9 4 -9 8 0 5 7 9 15 9 8 0 12 -4 9 -9z m-1561
-15 c-7 -2 -21 -2 -30 0 -10 3 -4 5 12 5 17 0 24 -2 18 -5z m950 -8 c-3 -9 -8
-14 -10 -11 -3 3 -2 9 2 15 9 16 15 13 8 -4z m1399 -7 c-7 -7 -12 -8 -12 -2 0
6 3 14 7 17 3 4 9 5 12 2 2 -3 -1 -11 -7 -17z m-1457 -10 c5 -4 0 -6 -12 -6
-13 1 -19 7 -16 15 3 8 8 10 12 6 3 -4 10 -11 16 -15z m351 -13 c3 -8 14 -11
27 -7 18 5 19 3 7 -9 -7 -9 -21 -15 -29 -15 -9 1 -16 -3 -16 -9 0 -5 4 -9 8
-7 5 1 6 -2 2 -8 -5 -8 -11 -7 -21 1 -13 10 -12 14 2 30 21 24 11 37 -13 18
-16 -12 -17 -12 -6 2 10 12 10 18 0 28 -10 11 -8 11 11 2 13 -7 25 -18 28 -26z
m-241 15 c3 -5 1 -10 -4 -10 -6 0 -11 5 -11 10 0 6 2 10 4 10 3 0 8 -4 11 -10z
m1125 6 c0 -3 -4 -8 -10 -11 -5 -3 -10 -1 -10 4 0 6 5 11 10 11 6 0 10 -2 10
-4z m70 -11 c0 -12 -19 -12 -23 0 -4 9 -1 12 9 8 7 -3 14 -7 14 -8z m-250 -5
c0 -5 -4 -10 -10 -10 -5 0 -10 5 -10 10 0 6 5 10 10 10 6 0 10 -4 10 -10z
m205 0 c3 -5 1 -10 -4 -10 -6 0 -11 5 -11 10 0 6 2 10 4 10 3 0 8 -4 11 -10z
m-2175 -10 c0 -5 -4 -10 -10 -10 -5 0 -10 5 -10 10 0 6 5 10 10 10 6 0 10 -4
10 -10z m2085 -4 c22 -16 14 -49 -10 -40 -8 3 -15 10 -15 15 0 4 7 6 15 3 8
-4 15 -1 15 5 0 11 -13 15 -39 12 -7 -2 -10 2 -6 8 8 14 17 14 40 -3z m-1179
-62 c8 3 14 1 14 -4 0 -6 -9 -10 -20 -10 -17 0 -20 6 -18 43 l1 42 4 -38 c3
-29 8 -37 19 -33z m62 39 c-12 -13 -28 -23 -36 -23 -18 0 -6 15 11 15 7 0 11
7 10 16 -2 9 5 15 17 15 19 0 19 -1 -2 -23z m1362 13 c0 -3 -4 -8 -10 -11 -5
-3 -10 -1 -10 4 0 6 5 11 10 11 6 0 10 -2 10 -4z m13 -21 c-3 -9 -8 -14 -10
-11 -3 3 -2 9 2 15 9 16 15 13 8 -4z m-1338 -5 c3 -5 2 -10 -4 -10 -5 0 -13 5
-16 10 -3 6 -2 10 4 10 5 0 13 -4 16 -10z m26 -13 c-10 -9 -11 -8 -5 6 3 10 9
15 12 12 3 -3 0 -11 -7 -18z m1109 9 c0 -8 -7 -16 -15 -20 -17 -6 -18 -4 -9
18 8 20 24 21 24 2z m-2772 -21 c-6 -14 -16 -25 -21 -25 -5 0 -4 7 3 15 6 8 9
19 5 25 -3 5 1 10 9 10 13 0 14 -4 4 -25z m2717 5 c3 -5 2 -10 -4 -10 -5 0
-13 5 -16 10 -3 6 -2 10 4 10 5 0 13 -4 16 -10z m8 -40 c4 0 5 5 2 10 -3 6 -1
10 4 10 6 0 11 -4 11 -9 0 -14 -28 -33 -40 -26 -5 3 -10 1 -10 -4 0 -6 -4 -11
-10 -11 -5 0 -10 7 -10 15 0 8 6 14 13 13 6 -2 11 4 9 12 -3 12 -1 13 9 3 7
-7 17 -13 22 -13z m-2073 -10 c0 -11 -4 -20 -10 -20 -5 0 -10 9 -10 20 0 11 5
20 10 20 6 0 10 -9 10 -20z m910 10 c0 -5 -4 -10 -10 -10 -5 0 -10 5 -10 10 0
6 5 10 10 10 6 0 10 -4 10 -10z m40 -21 c0 -14 -17 -10 -23 5 -4 10 -1 13 9 9
7 -3 14 -9 14 -14z m-77 -2 c4 3 7 2 7 -3 0 -5 -9 -16 -20 -24 -11 -8 -20 -20
-20 -27 0 -6 -4 -14 -9 -17 -4 -3 -6 6 -3 19 2 14 8 28 13 30 4 3 5 13 2 23
-6 14 -4 15 9 5 8 -7 18 -10 21 -6z m-548 -17 c-3 -5 1 -10 11 -10 14 0 14 -2
3 -16 -10 -13 -10 -17 2 -25 8 -5 9 -9 4 -9 -6 0 -21 7 -33 16 -18 12 -20 19
-12 35 6 10 15 19 21 19 6 0 7 -4 4 -10z m1735 1 c0 -6 -4 -12 -10 -16 -5 -3
-7 -12 -3 -20 6 -18 -22 -21 -33 -3 -4 7 -3 8 4 4 7 -4 14 3 18 19 6 24 24 36
24 16z m-120 -14 c0 -7 -9 -13 -19 -13 -15 0 -17 3 -9 13 6 7 14 13 19 13 5 0
9 -6 9 -13z m395 3 c3 -5 2 -10 -4 -10 -5 0 -13 5 -16 10 -3 6 -2 10 4 10 5 0
13 -4 16 -10z m-3015 -10 c0 -5 -4 -10 -10 -10 -5 0 -10 5 -10 10 0 6 5 10 10
10 6 0 10 -4 10 -10z m2673 -27 c-3 -9 -9 -11 -15 -5 -5 5 -6 17 -2 26 5 13 9
14 14 5 5 -7 6 -19 3 -26z m360 10 c-7 -2 -21 -2 -30 0 -10 3 -4 5 12 5 17 0
24 -2 18 -5z m-1638 -53 c4 -26 3 -31 -5 -20 -9 13 -11 13 -20 0 -5 -8 -10
-10 -10 -4 0 5 5 15 12 22 9 9 9 12 0 12 -10 0 -10 3 0 14 16 17 16 18 23 -24z
m-968 24 c-3 -3 -12 -4 -19 -1 -8 3 -5 6 6 6 11 1 17 -2 13 -5z m823 -10 c0
-2 -7 -4 -15 -4 -8 0 -15 4 -15 10 0 5 7 7 15 4 8 -4 15 -8 15 -10z m-184 -14
c0 -11 -4 -20 -8 -20 -10 0 -11 24 -1 33 9 9 9 10 9 -13z m104 10 c13 -8 13
-10 -2 -10 -9 0 -20 5 -23 10 -8 13 5 13 25 0z m-453 -30 c0 -19 -4 -27 -10
-21 -5 5 -6 18 -2 30 9 29 12 26 12 -9z m403 26 c0 -3 -4 -8 -10 -11 -5 -3
-10 -1 -10 4 0 6 5 11 10 11 6 0 10 -2 10 -4z m-468 -38 c-8 -8 -9 -4 -5 13 4
13 8 18 11 10 2 -7 -1 -18 -6 -23z m628 22 c0 -5 -2 -10 -4 -10 -3 0 -8 5 -11
10 -3 6 -1 10 4 10 6 0 11 -4 11 -10z m-1278 -22 c-7 -7 -12 -8 -12 -2 0 14
12 26 19 19 2 -3 -1 -11 -7 -17z m428 12 c0 -5 -7 -10 -16 -10 -8 0 -12 5 -9
10 3 6 10 10 16 10 5 0 9 -4 9 -10z m800 -30 c0 -5 -5 -10 -11 -10 -5 0 -7 5
-4 10 3 6 8 10 11 10 2 0 4 -4 4 -10z m180 6 c0 -3 -4 -8 -10 -11 -5 -3 -10
-1 -10 4 0 6 5 11 10 11 6 0 10 -2 10 -4z m-210 -21 c0 -9 -6 -12 -15 -9 -8 4
-15 10 -15 15 0 5 7 9 15 9 8 0 15 -7 15 -15z m1880 0 c-5 -7 -7 -15 -3 -18 3
-4 2 -7 -4 -7 -11 0 -25 25 -17 32 2 3 11 5 19 5 10 0 12 -4 5 -12z m655 -15
c-3 -5 -12 -10 -18 -10 -7 0 -6 4 3 10 19 12 23 12 15 0z m-2440 -43 c6 -5 4
-7 -5 -4 -8 2 -21 -3 -28 -12 -10 -13 -10 -11 -1 12 7 15 15 24 18 20 3 -4 11
-12 16 -16z m105 19 c0 -3 -4 -8 -10 -11 -5 -3 -10 -1 -10 4 0 6 5 11 10 11 6
0 10 -2 10 -4z m1660 -20 c-5 -13 -7 -26 -4 -29 3 -2 -2 -7 -11 -10 -17 -7
-21 8 -5 18 6 3 10 15 10 26 0 10 4 19 10 19 6 0 6 -9 0 -24z m-2813 -58 c-3
-8 -6 -5 -6 6 -1 11 2 17 5 13 3 -3 4 -12 1 -19z m3463 16 c0 -8 -19 -13 -24
-6 -3 5 1 9 9 9 8 0 15 -2 15 -3z m843 -5 c-9 -9 -8 -18 4 -36 9 -13 12 -23 7
-22 -23 4 -29 -3 -29 -33 0 -37 -19 -48 -30 -16 l-8 23 -4 -23 c-3 -13 -11
-26 -19 -29 -7 -3 -23 -20 -34 -38 -12 -19 -30 -37 -42 -41 -14 -4 -17 -8 -8
-14 9 -6 9 -13 1 -31 -10 -21 -10 -21 1 -6 7 10 32 43 55 73 37 48 43 53 56
39 9 -8 22 -15 29 -15 7 0 22 -8 33 -17 16 -13 17 -15 3 -10 -10 4 -18 2 -18
-2 0 -5 -9 -7 -20 -4 -11 3 -20 9 -20 14 0 5 -8 5 -17 0 -10 -5 -26 -12 -37
-15 -12 -4 -17 -13 -13 -26 3 -11 2 -20 -1 -20 -9 0 -6 -95 3 -111 5 -8 4 -10
-3 -5 -7 4 -12 3 -12 -2 0 -6 7 -12 15 -16 23 -8 18 -25 -10 -32 -26 -6 -35
-34 -11 -34 7 0 19 -7 26 -15 10 -11 9 -18 -4 -30 -9 -9 -16 -11 -16 -5 0 7
-5 6 -14 -2 -11 -11 -8 -15 16 -27 19 -9 25 -17 17 -21 -8 -6 -5 -12 11 -20
19 -10 22 -10 17 2 -3 8 1 15 8 15 8 0 13 -8 12 -18 -1 -10 -4 -17 -7 -17 -19
2 -21 -4 -6 -15 17 -12 17 -14 2 -20 -9 -4 -16 -2 -16 4 0 6 -4 7 -10 4 -5 -3
-10 3 -10 14 0 11 -9 25 -19 31 -31 16 -34 12 -12 -16 25 -31 27 -50 6 -58 -8
-3 -14 -2 -14 2 3 18 -2 32 -11 32 -5 0 -7 -8 -4 -17 5 -14 4 -15 -4 -4 -5 7
-7 21 -5 31 3 10 -1 21 -8 25 -7 5 -10 4 -6 -3 4 -5 4 -20 -1 -31 -7 -20 -8
-20 -20 -1 -10 16 -9 18 2 14 25 -10 6 37 -20 48 -17 8 -24 20 -24 38 0 34
-25 59 -42 42 -7 -7 -17 -12 -23 -12 -5 0 -3 5 6 10 14 8 15 17 8 50 -7 30 -6
48 5 68 9 17 11 33 6 43 -5 8 -5 21 0 29 8 12 10 10 10 -7 0 -12 7 -23 16 -25
13 -2 12 -7 -6 -25 -14 -16 -20 -34 -18 -58 1 -19 6 -35 10 -35 10 0 29 38 26
53 -1 6 15 59 37 117 37 101 42 108 122 188 46 45 87 82 90 82 4 0 2 -5 -4
-11z m-3286 -21 c-3 -8 -6 -5 -6 6 -1 11 2 17 5 13 3 -3 4 -12 1 -19z m-138
-49 c-16 -10 -23 -4 -14 10 3 6 11 8 17 5 6 -4 5 -9 -3 -15z m31 -25 c0 -8 -5
-12 -10 -9 -6 4 -8 11 -5 16 9 14 15 11 15 -7z m1985 -3 c-3 -6 -14 -10 -23
-10 -15 1 -15 2 1 6 9 2 17 9 17 15 0 6 3 9 6 5 3 -3 3 -10 -1 -16z m-2106
-25 c10 -12 8 -13 -8 -9 -12 3 -21 9 -21 14 0 14 16 11 29 -5z m2138 8 c-3 -3
-12 -4 -19 -1 -8 3 -5 6 6 6 11 1 17 -2 13 -5z m45 -28 c7 4 8 2 4 -5 -9 -13
-26 -5 -25 12 0 9 2 8 6 -1 2 -6 10 -9 15 -6z m975 -8 c-3 -8 -6 -5 -6 6 -1
11 2 17 5 13 3 -3 4 -12 1 -19z m-1104 5 c-7 -2 -19 -2 -25 0 -7 3 -2 5 12 5
14 0 19 -2 13 -5z m1501 -128 c13 -10 17 -22 13 -41 -2 -15 -1 -39 3 -53 4
-14 4 -35 -1 -46 -5 -13 -8 -15 -8 -5 -1 8 -10 32 -21 53 -19 36 -28 107 -12
107 4 0 15 -7 26 -15z m-1494 -20 c-7 -8 -18 -15 -24 -15 -6 0 -2 7 8 15 25
19 32 19 16 0z m40 5 c0 -5 -2 -10 -4 -10 -3 0 -8 5 -11 10 -3 6 -1 10 4 10 6
0 11 -4 11 -10z m2857 4 c-3 -3 -12 -4 -19 -1 -8 3 -5 6 6 6 11 1 17 -2 13 -5z
m-102 -15 c4 -6 13 -8 21 -5 16 6 49 -38 39 -54 -3 -5 -1 -10 5 -10 6 0 8 -5
4 -12 -4 -7 -3 -8 4 -4 7 4 12 1 13 -6 0 -9 2 -10 5 -1 3 7 11 10 19 7 7 -3
16 -1 20 5 3 6 11 11 16 11 6 0 7 -4 4 -10 -3 -5 1 -10 9 -10 19 0 21 -21 4
-38 -9 -9 2 -11 47 -9 32 2 54 2 47 -1 -14 -4 -16 -52 -3 -52 5 0 12 8 14 18
4 13 5 12 6 -5 0 -12 -3 -25 -9 -28 -17 -11 -12 -45 8 -44 10 0 12 3 5 6 -18
7 -16 23 2 23 18 0 20 -36 3 -43 -7 -2 -1 -8 15 -12 15 -4 27 -11 27 -16 0
-11 -30 -42 -56 -58 -17 -11 -17 -11 4 -6 25 7 31 -12 7 -22 -12 -4 -10 -9 11
-19 15 -8 29 -12 32 -9 3 2 -3 7 -12 11 -24 9 -20 26 5 19 16 -5 19 -4 14 5
-5 8 -4 11 3 6 6 -3 15 1 20 10 8 15 10 15 15 0 4 -10 3 -15 -2 -12 -10 7 -24
-20 -26 -49 0 -11 -4 -25 -8 -31 -4 -7 0 -17 8 -24 8 -7 15 -9 16 -4 1 5 4 -2
8 -16 5 -19 2 -29 -13 -42 -20 -16 -20 -16 9 -11 17 2 25 1 20 -4 -6 -4 -8
-21 -4 -38 l7 -30 1 28 c0 15 7 27 14 28 6 0 22 2 35 3 13 2 25 -1 28 -6 3 -4
-2 -8 -10 -8 -22 0 -20 -20 2 -20 15 -1 15 -2 -3 -17 -20 -15 -20 -15 3 -9 66
18 67 18 35 -4 -37 -25 -38 -26 -21 -36 6 -4 8 -3 5 3 -4 6 1 14 10 17 27 11
41 -21 23 -55 -7 -12 -7 -19 -1 -19 6 0 7 -7 4 -17 -4 -11 -3 -14 5 -9 21 13
13 -4 -14 -29 -25 -24 -28 -65 -3 -49 8 4 7 9 -2 16 -11 8 -10 9 3 4 10 -3 22
2 27 12 8 13 10 14 11 3 0 -12 3 -12 12 -3 10 10 10 15 -2 22 -8 5 -10 10 -5
10 6 0 11 8 11 18 1 9 4 26 8 37 5 11 4 15 -1 9 -10 -14 -45 -14 -40 0 3 6 10
10 17 8 7 -2 16 2 20 9 5 8 10 4 15 -11 4 -12 2 -27 -4 -33 -20 -20 -12 -27
29 -27 22 0 40 -4 40 -10 0 -5 -12 -10 -27 -10 -20 0 -24 -3 -14 -9 8 -5 11
-16 8 -25 -5 -12 0 -16 18 -16 14 0 25 -4 25 -10 0 -5 5 -10 10 -10 6 0 10 7
10 15 0 8 -9 15 -19 15 -13 0 -18 6 -17 18 3 21 34 28 50 11 8 -9 7 -11 -6 -6
-10 3 -20 2 -23 -3 -4 -6 2 -10 13 -10 16 0 19 -6 16 -30 -2 -16 1 -30 6 -30
6 0 10 15 11 33 l1 32 12 -36 c7 -24 16 -34 25 -31 10 3 12 0 8 -11 -3 -9 -2
-19 3 -22 6 -4 10 2 10 12 0 14 2 15 9 4 5 -8 14 -10 21 -6 9 5 11 4 6 -3 -4
-7 -14 -12 -22 -12 -18 0 -18 -5 3 -30 21 -25 33 -25 34 -2 1 9 5 -3 9 -28 4
-25 6 -47 4 -49 -7 -8 -15 6 -17 28 -1 11 -5 21 -10 21 -11 0 -57 47 -51 53 2
2 -3 10 -11 17 -13 11 -18 11 -30 -1 -11 -12 -11 -16 2 -28 13 -12 14 -11 9
10 -7 23 -7 23 8 4 8 -11 20 -26 26 -33 6 -7 9 -16 6 -21 -3 -5 2 -8 11 -7 24
2 36 -60 16 -80 -9 -8 -12 -18 -9 -22 4 -3 11 0 16 8 7 11 11 11 23 1 12 -10
19 -7 36 15 12 15 21 22 21 16 0 -6 -4 -14 -10 -17 -5 -3 -10 -21 -9 -38 1
-29 2 -30 8 -8 6 23 41 40 41 20 0 -5 -4 -9 -10 -9 -5 0 -10 -7 -10 -15 0 -9
6 -12 15 -9 10 4 15 0 15 -16 0 -13 4 -19 12 -14 7 5 9 0 6 -14 -7 -27 14 -25
25 3 7 17 10 17 18 5 8 -12 9 -10 4 6 -3 12 -1 32 4 45 5 13 10 18 10 12 1
-19 19 -16 24 5 3 9 5 0 6 -20 0 -21 4 -38 9 -38 4 0 8 -16 9 -35 2 -34 1 -35
-38 -35 -37 0 -40 2 -35 23 l6 22 -12 -23 c-6 -12 -9 -24 -6 -27 8 -8 50 -8
117 0 l63 8 -17 -27 c-10 -14 -24 -26 -33 -26 -12 0 -13 3 -4 12 14 14 16 28
3 28 -5 0 -17 -18 -27 -40 -10 -22 -22 -40 -28 -40 -6 0 -5 5 2 12 15 15 16
58 2 58 -5 0 -10 -9 -10 -20 0 -11 -9 -29 -19 -39 -17 -17 -18 -26 -10 -53 13
-46 12 -47 -11 -10 -25 40 -40 41 -40 2 0 -16 -4 -30 -9 -30 -5 0 -12 -11 -15
-24 -5 -19 -11 -22 -31 -18 -18 3 -25 0 -25 -12 0 -9 -7 -16 -16 -16 -11 0
-14 6 -10 23 3 12 3 16 0 9 -3 -6 -9 -10 -13 -8 -9 6 -8 -40 2 -50 4 -4 7 -2
7 4 0 7 5 12 11 12 8 0 8 -5 -1 -15 -14 -17 -45 -21 -35 -5 3 5 -1 10 -9 10
-20 0 -30 -17 -14 -23 8 -4 7 -6 -4 -6 -23 -1 -19 37 4 45 16 5 26 24 13 24
-31 0 -69 -104 -42 -113 6 -2 7 -8 3 -15 -12 -19 -37 -2 -30 21 6 19 5 20 -10
5 -20 -21 -21 -48 -1 -48 8 0 15 -4 15 -8 0 -4 -9 -8 -20 -8 -15 0 -20 7 -20
28 0 37 -36 34 -63 -7 -10 -16 -16 -22 -13 -12 3 10 1 28 -6 40 -6 12 -12 30
-13 42 -4 34 -5 35 -20 35 -9 0 -12 6 -9 18 5 16 5 16 -6 0 -14 -22 -30 -23
-30 -2 0 8 -5 12 -10 9 -6 -4 -7 -11 -4 -17 4 -7 2 -8 -4 -4 -7 4 -12 2 -12
-5 0 -7 -3 -9 -7 -6 -3 4 -11 0 -17 -9 -10 -13 -12 -13 -12 5 0 12 7 21 16 22
11 0 9 3 -5 10 -17 8 -15 8 8 4 15 -3 27 -1 27 5 0 5 -16 10 -36 10 -31 0 -35
-2 -29 -21 6 -18 4 -20 -14 -14 -17 5 -21 2 -20 -17 0 -22 1 -22 9 -3 8 18 9
17 9 -8 1 -19 5 -26 13 -21 7 4 8 3 4 -4 -4 -6 -13 -9 -21 -5 -11 3 -15 -2
-15 -18 0 -19 -2 -21 -10 -9 -8 13 -10 12 -11 -5 -1 -18 -2 -18 -6 -2 -5 18
-5 18 -19 0 -13 -16 -13 -16 -8 0 3 9 1 17 -5 17 -6 0 -11 -6 -12 -12 0 -7 -4
-4 -8 7 -5 12 -17 20 -31 20 -13 0 -25 5 -27 10 -2 6 14 10 37 10 27 0 39 -4
36 -11 -3 -7 2 -15 10 -18 17 -7 19 18 2 31 -7 5 -34 9 -61 8 -37 0 -47 3 -46
15 3 29 -1 40 -13 40 -9 0 -9 -3 0 -12 7 -7 8 -17 1 -30 -6 -11 -6 -25 -1 -35
5 -10 7 -25 5 -33 -4 -13 -3 -13 5 -1 6 8 8 21 4 29 -4 12 1 11 21 -4 25 -18
39 -43 17 -29 -5 3 -10 -1 -10 -9 0 -9 7 -16 16 -16 12 0 15 7 12 25 -3 14 -2
25 1 25 4 0 12 -23 18 -52 9 -46 9 -50 -5 -32 -13 17 -14 17 -8 1 3 -11 0 -25
-8 -33 -13 -12 -14 -10 -9 21 5 32 4 35 -20 35 -14 0 -29 5 -32 10 -4 6 -11 8
-16 5 -5 -4 -9 0 -10 7 0 7 -4 4 -9 -7 -8 -19 -9 -19 -9 -1 -1 14 -4 16 -14 7
-18 -14 -26 -5 -20 20 4 15 8 17 20 8 11 -9 17 -9 26 0 9 10 9 12 -3 9 -10 -2
-14 3 -12 17 3 16 1 18 -9 7 -15 -14 -33 -16 -24 -3 3 5 0 13 -6 16 -5 4 -8
14 -4 22 5 13 3 14 -10 3 -11 -10 -13 -15 -4 -20 7 -5 7 -10 1 -14 -5 -3 -16
1 -23 10 -11 14 -10 19 9 34 27 22 28 32 2 48 -11 7 -20 8 -20 3 0 -5 5 -11
12 -13 9 -3 9 -6 -1 -12 -8 -5 -14 -1 -18 13 -3 12 -10 21 -15 21 -5 0 -6 -9
-3 -20 7 -22 -12 -25 -28 -5 -5 6 -7 1 -4 -12 4 -19 3 -20 -14 -10 -12 7 -17
19 -14 32 3 11 2 14 -1 8 -3 -7 -14 -13 -25 -13 -18 0 -23 -14 -20 -50 1 -10
-2 -9 -10 4 -9 14 -9 24 -1 36 6 10 8 27 5 39 -6 24 -4 24 -37 11 -17 -6 -26
-6 -26 0 0 6 8 10 18 11 19 1 -22 16 -48 18 -12 1 -12 -1 -2 -8 11 -7 17 -21
21 -52 1 -3 9 -14 19 -25 18 -20 25 -64 9 -64 -5 0 -7 -6 -4 -13 6 -16 -20
-53 -30 -42 -5 4 -2 10 5 12 17 7 15 30 -4 37 -14 5 -15 4 -4 -9 10 -12 10
-15 -3 -15 -19 0 -18 63 1 82 17 17 15 27 -5 23 -10 -1 -17 -10 -17 -19 1 -9
-2 -16 -6 -16 -11 0 -21 30 -14 41 5 9 -1 11 -36 13 -17 1 -43 69 -29 74 5 2
9 8 9 14 0 6 -8 4 -18 -5 -23 -21 -42 -22 -42 -2 0 8 5 15 10 15 6 0 10 5 10
12 0 9 -3 9 -12 0 -18 -18 -40 -15 -37 6 3 33 -1 41 -22 37 -15 -3 -19 0 -15
10 3 8 0 14 -7 12 -7 -1 -11 4 -10 11 4 19 -11 14 -25 -8 -7 -12 -8 -20 -2
-20 5 0 10 5 10 11 0 5 4 8 9 4 13 -7 10 -48 -4 -58 -6 -5 -2 -6 10 -3 20 6
20 6 1 -9 -20 -15 -19 -15 1 -15 13 0 20 6 20 18 0 39 3 48 12 34 15 -24 0
-60 -28 -68 -36 -10 -40 -11 -48 -13 -5 -1 1 -8 11 -16 11 -8 16 -15 11 -15
-5 0 0 -6 10 -14 18 -13 17 -14 -13 -10 -29 3 -31 2 -23 -19 9 -24 4 -47 -9
-47 -5 0 -7 9 -5 20 3 14 -2 20 -16 20 -10 0 -19 5 -19 10 0 6 -4 10 -10 10
-18 0 -11 -17 13 -29 21 -11 21 -11 1 -7 -18 3 -21 -1 -20 -20 0 -13 6 -24 13
-24 8 0 10 7 6 18 -6 15 -5 15 10 4 8 -8 13 -20 10 -28 -3 -8 0 -14 6 -14 6 0
11 6 11 14 0 8 7 17 16 20 14 5 15 4 4 -9 -10 -12 -10 -18 -1 -29 10 -12 8
-13 -11 -9 -13 3 -29 10 -36 16 -10 8 -15 5 -19 -12 -4 -16 -8 -19 -13 -10 -6
9 -12 8 -25 -4 -21 -21 -26 -21 -18 0 4 10 2 14 -4 10 -6 -4 -16 -28 -22 -53
-11 -43 -13 -45 -26 -28 -8 11 -15 22 -15 27 0 14 -36 43 -49 39 -9 -3 -9 -7
1 -20 11 -13 10 -15 -4 -9 -22 8 -24 -15 -4 -32 8 -7 12 -21 9 -31 -6 -23 -19
-26 -26 -7 -3 7 -6 5 -6 -5 -1 -10 -6 -18 -12 -18 -6 0 -9 -7 -5 -15 3 -8 -1
-18 -9 -22 -7 -5 -15 -26 -18 -48 -4 -40 -4 -40 -5 8 -1 26 2 47 7 47 6 0 8
17 5 38 -2 20 -2 31 2 25 3 -7 10 -13 15 -13 5 0 2 15 -8 33 l-17 32 -6 -25
-6 -25 -8 25 c-6 20 -9 21 -13 8 -2 -9 1 -27 7 -39 10 -17 9 -23 -1 -30 -10
-6 -11 -9 -1 -9 22 0 13 -18 -13 -24 -14 -4 -23 -11 -20 -15 3 -5 -1 -12 -7
-14 -10 -4 -9 -8 2 -16 13 -10 12 -13 -5 -28 -15 -12 -16 -14 -3 -10 9 3 19 0
22 -8 3 -9 0 -12 -10 -8 -10 4 -12 0 -8 -12 4 -10 -4 -6 -21 11 -16 16 -23 30
-17 32 22 7 12 20 -13 18 -24 -1 -37 -16 -13 -16 6 0 8 -3 5 -7 -4 -3 1 -12
11 -20 16 -13 16 -13 -3 -11 -14 2 -20 -2 -19 -14 1 -10 -2 -15 -7 -12 -5 3
-9 -2 -9 -10 0 -20 -5 -20 -35 0 -13 9 -30 12 -36 8 -7 -4 -9 -3 -6 3 4 6 -8
17 -26 24 -40 16 -45 23 -41 62 l4 32 -19 -29 c-18 -28 -19 -28 -26 -6 -6 20
-7 21 -21 3 -12 -16 -15 -16 -24 -3 -9 13 -12 13 -23 -1 -12 -15 -57 -21 -57
-7 0 16 -29 7 -32 -9 -3 -16 -5 -16 -25 4 l-22 22 -4 -22 -4 -22 -8 21 c-5 16
-12 20 -27 16 -11 -3 -24 1 -29 9 -7 12 -9 12 -9 -1 0 -10 -6 -7 -19 9 -12 16
-23 21 -32 16 -16 -11 -59 -13 -59 -4 0 4 7 9 15 13 8 3 15 10 15 16 0 6 -7 4
-16 -4 -8 -9 -19 -16 -24 -16 -5 0 -7 -6 -4 -14 4 -10 -3 -13 -27 -12 -18 1
-34 6 -36 12 -2 7 7 10 22 9 14 -2 23 1 19 6 -3 5 -11 9 -17 9 -19 0 -43 33
-39 55 3 18 1 17 -18 -5 -16 -18 -20 -20 -16 -7 7 22 -4 73 -13 59 -8 -14 -63
-2 -58 12 2 6 12 10 21 8 24 -4 46 28 39 57 -4 15 -2 22 4 18 6 -4 9 8 8 31
-2 20 -1 31 2 25 10 -27 25 -12 19 19 -3 17 -3 29 0 25 11 -10 32 18 42 56 6
20 22 48 36 62 18 18 26 37 26 60 0 18 7 41 16 49 12 12 12 16 2 16 -8 0 -9 3
-3 8 10 6 14 25 18 75 1 10 7 15 13 13 8 -3 10 3 6 16 -3 14 -1 19 6 14 8 -5
12 1 12 18 0 13 6 31 14 38 7 8 12 26 11 41 -2 15 1 27 6 27 4 0 5 7 2 17 -4
9 -2 14 3 10 6 -3 11 3 11 14 2 22 -15 26 -23 4 -4 -8 -12 -15 -19 -15 -20 0
-33 23 -24 45 7 18 8 17 8 -7 1 -20 5 -26 16 -22 8 4 15 13 15 21 0 8 -4 11
-10 8 -5 -3 -10 -1 -10 6 0 6 8 9 20 6 11 -3 23 -1 26 4 3 5 -4 9 -15 9 -11 0
-22 9 -26 20 -4 11 -10 18 -14 16 -4 -3 -13 5 -20 16 -11 18 -11 20 3 15 11
-4 16 -1 17 11 1 11 4 8 9 -8 5 -17 8 -19 9 -7 1 9 5 17 10 17 5 0 17 7 25 16
9 8 16 11 16 5 0 -6 5 -11 11 -11 6 0 9 7 5 15 -4 11 1 15 19 15 13 0 27 4 30
10 4 6 -1 7 -11 3 -11 -4 -15 -2 -11 4 4 6 -4 9 -21 7 -15 -2 -21 -1 -13 2 11
5 11 8 0 16 -9 5 -3 6 16 2 17 -4 32 -7 35 -6 30 0 43 5 60 22 11 11 20 16 20
10 0 -5 5 -10 10 -10 6 0 10 5 10 11 0 17 28 40 35 29 3 -5 1 -10 -4 -10 -6 0
-11 -13 -11 -30 0 -22 4 -28 15 -24 11 4 15 -1 15 -17 0 -18 3 -20 9 -10 5 7
15 11 22 9 24 -9 49 12 50 40 l1 27 12 -29 13 -28 7 32 c3 18 9 30 13 27 3 -4
12 -2 20 4 10 9 13 6 14 -12 1 -23 1 -22 14 6 7 16 11 35 8 42 -3 8 2 13 12
13 15 0 15 3 5 15 -10 12 -10 19 -2 27 9 9 12 7 12 -7 0 -23 16 -9 23 20 4 18
5 18 6 -2 1 -26 19 -31 27 -8 4 8 10 12 15 9 5 -3 6 3 2 12 -5 14 -3 16 11 11
9 -4 15 -3 11 2 -3 5 -1 12 4 16 5 3 15 -3 21 -12 11 -17 11 -17 5 1 -3 11 0
23 7 28 10 6 10 8 1 8 -7 0 -13 5 -13 10 0 6 8 5 20 -2 10 -7 17 -14 15 -17
-3 -2 5 -9 18 -16 15 -8 24 -8 29 -1 11 16 10 28 -2 21 -5 -3 -10 -1 -10 4 0
15 12 14 38 -5 12 -8 22 -12 23 -7 1 4 5 -3 9 -17 l8 -25 1 25 c1 17 4 21 9
12 7 -10 16 -9 48 4 21 9 42 21 46 28 7 10 13 -14 9 -36 -2 -12 17 -10 24 2 3
6 2 10 -4 10 -6 0 -8 7 -5 15 7 18 35 20 52 3 9 -9 12 -7 12 10 0 15 5 20 15
16 8 -4 15 -1 15 5 0 6 -12 11 -26 11 -14 0 -22 -4 -19 -10 3 -6 -1 -7 -10 -4
-13 5 -13 9 -3 23 7 9 13 17 14 19 1 2 11 -2 23 -9 11 -7 24 -10 28 -6 4 5 1
12 -7 17 -12 7 -12 10 3 16 12 4 23 0 32 -12 13 -17 14 -16 6 13 -8 27 -6 32
11 36 10 3 18 11 17 19 -4 30 2 58 12 58 6 0 9 -7 6 -15 -4 -8 -2 -17 3 -20 4
-3 11 1 13 7 3 8 6 6 6 -4 1 -19 21 -26 21 -8 0 6 7 10 15 10 8 0 15 6 15 14
0 11 7 13 30 6 26 -7 30 -6 30 11 0 10 5 19 11 19 6 0 8 -9 4 -20 -4 -11 -2
-20 4 -20 6 0 11 7 11 15 0 8 5 14 11 13 6 -2 14 3 16 10 3 8 -1 10 -14 5 -10
-3 -15 -2 -10 2 11 13 51 13 59 1 5 -7 8 -7 8 2 0 7 5 10 10 7 6 -3 10 0 10 9
0 8 -6 16 -12 19 -7 2 -10 8 -6 12 4 4 15 2 25 -6 15 -12 16 -12 10 4 -8 21
19 67 39 67 7 0 16 5 20 11 4 8 -1 9 -17 4 -20 -6 -22 -5 -11 6 17 18 15 27
-5 32 -16 4 -16 5 -1 6 9 0 20 -4 23 -10z m96 -21 c-4 -13 -6 -29 -4 -35 3 -7
0 -13 -5 -13 -5 0 -12 9 -15 20 -3 11 -2 18 3 15 4 -3 10 4 13 15 3 11 8 20
11 20 3 0 2 -10 -3 -22z m-2766 -8 c3 -5 1 -10 -4 -10 -6 0 -11 5 -11 10 0 6
2 10 4 10 3 0 8 -4 11 -10z m2630 -10 c3 -5 1 -10 -4 -10 -6 0 -11 5 -11 10 0
6 2 10 4 10 3 0 8 -4 11 -10z m195 -12 c0 -4 -4 -8 -9 -8 -6 0 -12 4 -15 8 -3
5 1 9 9 9 8 0 15 -4 15 -9z m-2715 -8 c3 -5 1 -10 -4 -10 -6 0 -11 5 -11 10 0
6 2 10 4 10 3 0 8 -4 11 -10z m2680 -10 c3 -5 1 -10 -4 -10 -6 0 -11 5 -11 10
0 6 2 10 4 10 3 0 8 -4 11 -10z m-2872 -15 c-3 -9 -8 -14 -10 -11 -3 3 -2 9 2
15 9 16 15 13 8 -4z m229 -17 c-7 -7 -12 -8 -12 -2 0 6 3 14 7 17 3 4 9 5 12
2 2 -3 -1 -11 -7 -17z m2395 16 c-3 -3 -12 -4 -19 -1 -8 3 -5 6 6 6 11 1 17
-2 13 -5z m-2603 -16 c-5 -8 -2 -9 12 -4 10 4 15 4 11 0 -4 -4 -1 -14 6 -22 9
-13 9 -14 0 -8 -8 4 -13 2 -13 -5 0 -9 -3 -9 -14 0 -8 7 -13 20 -11 29 5 23 4
22 11 22 3 0 2 -5 -2 -12z m56 -18 c0 -5 -2 -10 -4 -10 -3 0 -8 5 -11 10 -3 6
-1 10 4 10 6 0 11 -4 11 -10z m26 -27 c-11 -11 -17 4 -9 23 7 18 8 18 11 1 2
-10 1 -21 -2 -24z m202 12 c-3 -3 -9 2 -12 12 -6 14 -5 15 5 6 7 -7 10 -15 7
-18z m-134 -6 c-3 -5 -14 -5 -25 1 -26 14 -24 18 6 12 14 -2 22 -8 19 -13z
m1156 11 c0 -5 -5 -10 -11 -10 -5 0 -7 5 -4 10 3 6 8 10 11 10 2 0 4 -4 4 -10z
m1160 -14 c0 -2 -7 -7 -16 -10 -8 -3 -12 -2 -9 4 6 10 25 14 25 6z m83 -3 c3
-5 -2 -15 -11 -23 -14 -13 -15 -12 -9 2 3 9 1 19 -6 22 -7 2 -5 5 5 5 9 1 19
-2 21 -6z m-2438 -13 c-3 -5 -11 -10 -16 -10 -6 0 -7 5 -4 10 3 6 11 10 16 10
6 0 7 -4 4 -10z m604 -82 c18 -21 29 -38 24 -38 -16 0 -91 84 -97 110 -6 24
-6 24 16 -4 13 -16 38 -47 57 -68z m2321 71 c0 -5 -4 -9 -10 -9 -5 0 -10 7
-10 16 0 8 5 12 10 9 6 -3 10 -10 10 -16z m-4570 1 c8 -5 11 -10 5 -10 -5 0
-17 5 -25 10 -8 5 -10 10 -5 10 6 0 17 -5 25 -10z m1870 -10 c0 -5 -5 -10 -11
-10 -5 0 -7 5 -4 10 3 6 8 10 11 10 2 0 4 -4 4 -10z m2110 0 c0 -5 -4 -10 -10
-10 -5 0 -10 5 -10 10 0 6 5 10 10 10 6 0 10 -4 10 -10z m-4009 -27 c-12 -20
-14 -14 -5 12 4 9 9 14 11 11 3 -2 0 -13 -6 -23z m4039 13 c0 -3 -4 -8 -10
-11 -5 -3 -10 -1 -10 4 0 6 5 11 10 11 6 0 10 -2 10 -4z m560 0 c0 -3 -4 -8
-10 -11 -5 -3 -10 -1 -10 4 0 6 5 11 10 11 6 0 10 -2 10 -4z m30 -30 c0 -2 -7
-6 -15 -10 -8 -3 -15 -1 -15 4 0 6 7 10 15 10 8 0 15 -2 15 -4z m-2382 -128
c26 -29 17 -37 -20 -17 -22 12 -48 67 -48 101 1 19 5 15 22 -17 11 -22 32 -52
46 -67z m2379 96 c-3 -3 -12 -4 -19 -1 -8 3 -5 6 6 6 11 1 17 -2 13 -5z
m-2486 -27 c-10 -9 -11 -8 -5 6 3 10 9 15 12 12 3 -3 0 -11 -7 -18z m2775 3
c0 -12 -4 -16 -9 -11 -5 5 -6 14 -3 20 10 15 12 14 12 -9z m-2805 -13 c-10 -9
-11 -8 -5 6 3 10 9 15 12 12 3 -3 0 -11 -7 -18z m-2061 -40 c0 -5 -7 -4 -15 3
-8 7 -15 20 -15 29 1 13 3 13 15 -3 8 -11 15 -24 15 -29z m-2013 -59 c-2 -18
-4 -6 -4 27 0 33 2 48 4 33 2 -15 2 -42 0 -60z m4048 64 c-3 -3 -11 0 -18 7
-9 10 -8 11 6 5 10 -3 15 -9 12 -12z m2558 -7 c-7 -21 -12 -19 -10 4 0 11 5
18 9 15 4 -3 5 -11 1 -19z m-2515 -28 c3 -30 14 -46 63 -90 51 -46 57 -56 45
-67 -9 -6 -14 -17 -13 -22 6 -28 -29 -15 -70 26 l-45 46 7 66 c5 51 4 69 -7
76 -10 8 -10 9 2 5 9 -2 16 -18 18 -40z m86 -46 c44 -43 46 -57 6 -36 -36 19
-70 70 -70 105 1 24 1 24 14 -5 8 -16 30 -46 50 -64z m-4197 17 c-3 -8 -6 -5
-6 6 -1 11 2 17 5 13 3 -3 4 -12 1 -19z m5648 2 c-3 -5 -12 -10 -18 -10 -7 0
-6 4 3 10 19 12 23 12 15 0z m1030 -10 c3 -5 2 -10 -4 -10 -5 0 -13 5 -16 10
-3 6 -2 10 4 10 5 0 13 -4 16 -10z m178 -1 c-8 -8 -16 -8 -30 0 -16 9 -14 10
12 11 21 0 26 -3 18 -11z m-203 -19 c0 -5 -4 -10 -9 -10 -6 0 -13 5 -16 10 -3
6 1 10 9 10 9 0 16 -4 16 -10z m165 0 c3 -5 1 -10 -4 -10 -6 0 -11 5 -11 10 0
6 2 10 4 10 3 0 8 -4 11 -10z m50 0 c-3 -5 -14 -10 -23 -9 -14 0 -13 2 3 9 27
11 27 11 20 0z m-160 -10 c3 -5 1 -10 -4 -10 -6 0 -11 5 -11 10 0 6 2 10 4 10
3 0 8 -4 11 -10z m20 -38 c-3 -3 -11 0 -18 7 -9 10 -8 11 6 5 10 -3 15 -9 12
-12z m155 12 c0 -3 -8 -13 -17 -22 -16 -16 -16 -16 -10 0 4 11 0 18 -11 21
-10 3 -5 5 11 6 15 0 27 -2 27 -5z m-93 -61 c-4 -3 -7 -1 -7 5 0 7 -7 12 -15
12 -8 0 -15 2 -15 4 0 2 -3 12 -6 21 -4 11 3 7 21 -9 16 -15 25 -29 22 -33z
m-1448 16 c-24 -15 -30 -10 -11 9 9 10 19 14 21 9 2 -5 -3 -13 -10 -18z m1565
23 c3 -5 -1 -9 -9 -9 -8 0 -12 4 -9 9 3 4 7 8 9 8 2 0 6 -4 9 -8z m-78 -38
c-19 -19 -21 -11 -4 16 7 11 14 16 16 10 2 -5 -4 -17 -12 -26z m-2646 -82 c3
-3 -10 3 -28 14 -18 10 -43 30 -55 43 -13 14 -1 8 28 -14 28 -20 52 -40 55
-43z m2513 71 c-7 -2 -19 -2 -25 0 -7 3 -2 5 12 5 14 0 19 -2 13 -5z m189 -18
c3 -13 1 -22 -3 -19 -9 5 -13 44 -5 44 2 0 6 -11 8 -25z m-83 -18 c-1 -20 -2
-20 -9 3 -4 14 -8 19 -9 11 -1 -8 -4 -12 -7 -8 -9 9 6 28 17 22 5 -4 9 -16 8
-28z m56 13 c3 -5 2 -10 -4 -10 -5 0 -13 5 -16 10 -3 6 -2 10 4 10 5 0 13 -4
16 -10z m-6854 -37 c-8 -15 -10 -15 -11 -2 0 17 10 32 18 25 2 -3 -1 -13 -7
-23z m6835 13 c15 -16 19 -36 7 -36 -5 0 -13 11 -20 25 -13 28 -8 32 13 11z
m-1656 -16 c0 -5 -4 -10 -10 -10 -5 0 -10 5 -10 10 0 6 5 10 10 10 6 0 10 -4
10 -10z m1707 -32 c-3 -8 -6 -5 -6 6 -1 11 2 17 5 13 3 -3 4 -12 1 -19z
m-4870 -10 c-3 -8 -6 -5 -6 6 -1 11 2 17 5 13 3 -3 4 -12 1 -19z m4853 6 c0
-8 -4 -12 -10 -9 -5 3 -10 10 -10 16 0 5 5 9 10 9 6 0 10 -7 10 -16z m32 -16
c-8 -8 -9 -4 -5 13 4 13 8 18 11 10 2 -7 -1 -18 -6 -23z m-4796 -15 c-11 -11
-17 4 -9 23 7 18 8 18 11 1 2 -10 1 -21 -2 -24z m4738 21 c3 -8 2 -12 -4 -9
-6 3 -10 10 -10 16 0 14 7 11 14 -7z m110 0 c3 -8 2 -12 -4 -9 -6 3 -10 10
-10 16 0 14 7 11 14 -7z m-144 2 c0 -3 -4 -8 -10 -11 -5 -3 -10 -1 -10 4 0 6
5 11 10 11 6 0 10 -2 10 -4z m-4777 -36 c-3 -11 -9 -20 -13 -20 -4 0 -10 9
-13 20 -4 15 0 20 13 20 13 0 17 -5 13 -20z m-113 -10 c0 -5 -4 -10 -10 -10
-5 0 -10 5 -10 10 0 6 5 10 10 10 6 0 10 -4 10 -10z m17 -12 c-3 -8 -6 -5 -6
6 -1 11 2 17 5 13 3 -3 4 -12 1 -19z m48 2 c3 -5 1 -10 -4 -10 -6 0 -11 5 -11
10 0 6 2 10 4 10 3 0 8 -4 11 -10z m4944 -7 c-18 -23 -31 -33 -44 -33 -5 0 3
11 19 25 34 29 44 32 25 8z m-49 -7 c0 -2 -7 -9 -15 -16 -13 -11 -14 -10 -9 4
5 14 24 23 24 12z m-1980 -67 c0 -5 -9 -9 -21 -9 -11 0 -17 -4 -14 -10 3 -5 1
-10 -5 -10 -7 0 -9 7 -6 16 3 9 6 19 6 24 0 4 9 6 20 3 11 -3 20 -9 20 -14z
m2115 11 c-3 -5 -11 -10 -16 -10 -6 0 -7 5 -4 10 3 6 11 10 16 10 6 0 7 -4 4
-10z m-7 -55 c-3 -3 -9 2 -12 12 -6 14 -5 15 5 6 7 -7 10 -15 7 -18z m32 11
c0 -3 -4 -8 -10 -11 -5 -3 -10 -1 -10 4 0 6 5 11 10 11 6 0 10 -2 10 -4z m49
-23 c0 -25 -1 -25 -8 -8 -5 11 -7 23 -4 28 8 14 13 7 12 -20z m-3115 -19 c3
-8 2 -12 -4 -9 -6 3 -10 10 -10 16 0 14 7 11 14 -7z m3184 -99 c-3 -3 -9 2
-12 12 -6 14 -5 15 5 6 7 -7 10 -15 7 -18z m-5098 5 c0 -5 -4 -10 -10 -10 -5
0 -10 5 -10 10 0 6 5 10 10 10 6 0 10 -4 10 -10z m5090 -35 c0 -5 -5 -3 -10 5
-5 8 -10 20 -10 25 0 6 5 3 10 -5 5 -8 10 -19 10 -25z m-5160 21 c0 -2 -9 -6
-20 -9 -11 -3 -20 -1 -20 4 0 5 9 9 20 9 11 0 20 -2 20 -4z m157 -3 c-9 -2
-14 -9 -11 -15 4 -7 2 -8 -5 -4 -15 10 -4 26 17 25 15 -1 15 -2 -1 -6z m93
-38 c0 -5 -5 -3 -10 5 -8 12 -10 12 -10 1 0 -8 -2 -12 -5 -9 -3 3 -2 13 1 22
5 14 9 15 15 4 5 -7 9 -17 9 -23z m4950 31 c0 -3 -4 -8 -10 -11 -5 -3 -10 -1
-10 4 0 6 5 11 10 11 6 0 10 -2 10 -4z m-60 -10 c0 -3 -4 -8 -10 -11 -5 -3
-10 -1 -10 4 0 6 5 11 10 11 6 0 10 -2 10 -4z m-5139 -29 c-10 -9 -11 -8 -5 6
3 10 9 15 12 12 3 -3 0 -11 -7 -18z m269 -7 c0 -5 -5 -10 -11 -10 -5 0 -7 5
-4 10 3 6 8 10 11 10 2 0 4 -4 4 -10z m5010 6 c0 -3 -4 -8 -10 -11 -5 -3 -10
-1 -10 4 0 6 5 11 10 11 6 0 10 -2 10 -4z m-168 -15 c8 11 9 11 6 1 -4 -16
-22 -18 -25 -2 -1 7 0 6 4 -1 4 -8 8 -7 15 2z m-4729 -29 c-18 -5 -27 3 -18
17 4 7 10 7 20 -2 11 -10 11 -13 -2 -15z m4838 1 c-12 -20 -14 -14 -5 12 4 9
9 14 11 11 3 -2 0 -13 -6 -23z m-3054 1 c-3 -3 -12 -4 -19 -1 -8 3 -5 6 6 6
11 1 17 -2 13 -5z m-36 -23 c-8 -5 -10 -14 -6 -22 6 -11 5 -11 -5 -2 -14 12
-6 33 13 33 8 0 7 -3 -2 -9z m50 -33 c-12 -12 -21 -17 -21 -12 0 15 35 55 38
44 2 -5 -6 -19 -17 -32z m3053 15 c4 -9 2 -21 -4 -27 -8 -8 -9 -6 -5 7 4 10 2
17 -4 17 -6 0 -11 5 -11 10 0 16 17 11 24 -7z m158 -16 c-14 -6 -26 -7 -32 -1
-5 5 4 9 23 10 30 1 30 1 9 -9z m-3246 -16 c-4 -5 -3 -11 1 -14 5 -2 3 -2 -4
-1 -7 2 -15 -1 -18 -6 -4 -6 -1 -10 4 -10 6 0 11 -4 11 -10 0 -5 -3 -9 -7 -9
-20 3 -26 -2 -13 -11 13 -8 13 -10 -2 -10 -9 0 -19 6 -22 13 -5 10 -7 10 -12
0 -3 -7 -10 -13 -16 -13 -6 0 -6 6 2 15 7 8 19 15 26 15 8 0 14 4 14 9 0 5 7
17 16 25 17 18 28 21 20 7z m3218 -18 c-5 -5 -12 -12 -16 -18 -4 -6 -8 -2 -8
8 0 9 7 17 17 17 9 0 12 -3 7 -7z m94 -21 c-10 -2 -18 -8 -18 -14 0 -6 -2 -9
-5 -6 -12 12 7 37 23 30 16 -6 15 -7 0 -10z m-68 -12 c0 -5 -7 -10 -15 -10 -8
0 -15 5 -15 10 0 6 7 10 15 10 8 0 15 -4 15 -10z m-3284 -54 c3 -14 -1 -36
-11 -53 -15 -26 -15 -26 -9 -3 l6 25 -18 -24 c-12 -18 -14 -26 -6 -29 7 -2 10
-8 6 -13 -3 -5 -12 -2 -21 7 -14 13 -14 17 -2 25 8 5 10 9 5 9 -5 0 -1 9 9 20
10 11 22 17 26 14 5 -3 9 0 9 5 0 19 -29 12 -41 -10 -10 -19 -13 -20 -26 -6
-12 12 -13 19 -4 33 11 17 11 17 6 -3 -8 -30 5 -29 30 2 25 31 33 31 41 1z
m3314 -26 c0 -5 -4 -10 -10 -10 -5 0 -10 5 -10 10 0 6 5 10 10 10 6 0 10 -4
10 -10z m-3380 -31 c0 -14 -16 -11 -29 5 -10 12 -8 13 8 9 12 -3 21 -9 21 -14z
m3260 -9 c0 -5 6 -7 13 -4 8 3 13 -4 14 -18 0 -13 -1 -17 -4 -9 -5 11 -7 11
-14 0 -7 -11 -9 -10 -9 4 0 9 -4 17 -10 17 -5 0 -10 5 -10 10 0 6 5 10 10 10
6 0 10 -4 10 -10z m-3303 -19 c11 10 20 7 44 -17 27 -28 28 -31 13 -52 -18
-26 -34 -29 -34 -6 0 8 -4 13 -9 9 -5 -3 -12 -1 -16 5 -4 6 6 10 25 10 20 0
29 4 25 11 -4 6 -13 8 -21 5 -8 -3 -11 0 -8 8 4 10 -2 14 -19 12 -19 -1 -23
-4 -15 -13 7 -9 7 -13 -1 -13 -6 0 -11 5 -11 11 0 6 -7 8 -17 5 -14 -6 -14 -4
2 14 12 13 21 17 23 10 3 -8 8 -7 19 1z m1993 -1 c0 -5 -5 -10 -11 -10 -5 0
-7 5 -4 10 3 6 8 10 11 10 2 0 4 -4 4 -10z m-1339 -31 c-12 -11 -21 -32 -21
-48 0 -20 -7 -31 -26 -40 -22 -10 -24 -14 -13 -27 9 -11 9 -18 1 -26 -7 -7
-12 -8 -12 -4 0 5 -7 3 -15 -4 -21 -17 -19 -2 6 51 33 66 79 130 90 123 6 -4
2 -14 -10 -25z m1304 11 c-3 -5 -10 -10 -16 -10 -5 0 -9 5 -9 10 0 6 7 10 16
10 8 0 12 -4 9 -10z m1289 -22 c3 -16 3 -28 -2 -28 -4 0 -9 14 -10 32 -3 37 2
35 12 -4z m-3264 -15 c0 -3 -7 -3 -15 1 -10 3 -15 -1 -15 -11 0 -9 -3 -14 -6
-10 -12 12 5 37 21 31 8 -3 15 -8 15 -11z m2056 -13 c9 0 12 -5 9 -10 -8 -13
-35 6 -34 24 0 7 2 6 6 -1 2 -7 11 -13 19 -13z m-4966 0 c0 -5 -4 -10 -10 -10
-5 0 -10 5 -10 10 0 6 5 10 10 10 6 0 10 -4 10 -10z m1008 -26 c-3 -14 -5 -12
-10 9 -3 19 -2 25 4 19 6 -6 8 -18 6 -28z m2069 8 c0 -20 -5 -28 -19 -28 -22
0 -23 14 -1 38 20 23 20 23 20 -10z m1823 18 c0 -5 -2 -10 -4 -10 -3 0 -8 5
-11 10 -3 6 -1 10 4 10 6 0 11 -4 11 -10z m270 -6 c0 -8 -5 -12 -10 -9 -6 4
-8 11 -5 16 9 14 15 11 15 -7z m-4193 -20 c-3 -3 -12 -4 -19 -1 -8 3 -5 6 6 6
11 1 17 -2 13 -5z m3883 -15 c0 -6 -4 -7 -10 -4 -5 3 -10 1 -10 -6 0 -7 -2
-10 -5 -7 -9 8 6 38 16 32 5 -3 9 -10 9 -15z m1287 -1 c-3 -8 -6 -5 -6 6 -1
11 2 17 5 13 3 -3 4 -12 1 -19z m-47 -10 c0 -18 -2 -20 -9 -8 -6 8 -7 18 -5
22 9 14 14 9 14 -14z m-6060 -9 c0 -5 -7 -9 -15 -9 -8 0 -15 7 -15 15 0 9 6
12 15 9 8 -4 15 -10 15 -15z m5280 1 c0 -5 -6 -10 -14 -10 -8 0 -18 5 -21 10
-3 6 3 10 14 10 12 0 21 -4 21 -10z m-4339 -27 c-12 -20 -14 -14 -5 12 4 9 9
14 11 11 3 -2 0 -13 -6 -23z m1910 9 c-7 -2 -18 1 -23 6 -8 8 -4 9 13 5 13 -4
18 -8 10 -11z m3198 -22 c0 -10 -3 -8 -9 5 -12 27 -12 43 0 25 5 -8 9 -22 9
-30z m37 3 c-10 -10 -19 5 -10 18 6 11 8 11 12 0 2 -7 1 -15 -2 -18z m-4591
-6 c6 -5 0 -5 -12 -2 -15 4 -23 2 -23 -6 0 -7 -3 -9 -6 -6 -4 4 -1 13 6 22 7
9 16 12 19 8 3 -4 11 -11 16 -16z m3422 3 c3 -11 14 -20 24 -20 10 0 21 -6 25
-12 4 -7 4 -10 -1 -6 -13 12 -37 -21 -30 -42 7 -21 -4 -27 -21 -10 -7 7 -10 4
-10 -12 1 -13 6 -27 11 -31 6 -5 5 -7 -3 -5 -8 2 -13 8 -13 13 0 17 -27 26
-54 19 -14 -3 -25 -13 -25 -21 0 -8 -5 -11 -12 -7 -19 12 0 -59 20 -75 16 -12
15 -13 -6 -8 -12 3 -20 1 -16 -4 3 -5 1 -9 -4 -9 -6 0 -13 12 -17 27 l-7 28
-12 -24 c-12 -21 -14 -21 -20 -6 -9 25 11 82 45 129 16 22 29 46 29 53 0 7 11
18 25 25 19 8 28 8 42 -3 15 -12 16 -12 10 4 -3 9 -2 17 4 17 6 0 13 -9 16
-20z m110 -2 c-3 -8 -6 -5 -6 6 -1 11 2 17 5 13 3 -3 4 -12 1 -19z m728 12 c3
-5 2 -10 -4 -10 -5 0 -13 5 -16 10 -3 6 -2 10 4 10 5 0 13 -4 16 -10z m-945
-21 c0 -6 -4 -7 -10 -4 -5 3 -10 11 -10 16 0 6 5 7 10 4 6 -3 10 -11 10 -16z
m1220 6 c0 -3 -10 -16 -21 -28 -12 -12 -19 -16 -15 -9 4 6 2 12 -3 12 -6 0
-11 5 -11 11 0 6 7 9 15 5 8 -3 15 -1 15 4 0 6 5 10 10 10 6 0 10 -2 10 -5z
m-1035 -15 c3 -5 1 -10 -4 -10 -6 0 -11 5 -11 10 0 6 2 10 4 10 3 0 8 -4 11
-10z m-3848 -27 c-3 -2 -14 0 -24 7 -16 10 -16 11 0 6 9 -3 17 0 18 7 0 8 2 8
6 -1 3 -7 3 -16 0 -19z m4160 21 c-3 -3 -12 -4 -19 -1 -8 3 -5 6 6 6 11 1 17
-2 13 -5z m348 -4 c3 -5 1 -10 -4 -10 -6 0 -11 5 -11 10 0 6 2 10 4 10 3 0 8
-4 11 -10z m-4195 -25 c0 -7 6 -15 13 -18 6 -2 9 -8 5 -12 -10 -10 -35 16 -35
37 0 9 4 15 9 12 4 -3 8 -11 8 -19z m4615 7 c-3 -3 -11 0 -18 7 -9 10 -8 11 6
5 10 -3 15 -9 12 -12z m-347 -23 c-3 -8 -7 -3 -11 10 -4 17 -3 21 5 13 5 -5 8
-16 6 -23z m-38 17 c0 -3 -4 -8 -10 -11 -5 -3 -10 -1 -10 4 0 6 5 11 10 11 6
0 10 -2 10 -4z m150 -16 c0 -5 -2 -10 -4 -10 -3 0 -8 5 -11 10 -3 6 -1 10 4
10 6 0 11 -4 11 -10z m-4703 -6 c-3 -3 -12 -4 -19 -1 -8 3 -5 6 6 6 11 1 17
-2 13 -5z m1711 -14 c-7 -10 -14 -18 -15 -16 -6 6 9 36 18 36 5 0 4 -9 -3 -20z
m-1658 0 c0 -5 -2 -10 -4 -10 -3 0 -8 5 -11 10 -3 6 -1 10 4 10 6 0 11 -4 11
-10z m3480 0 c0 -5 -4 -10 -10 -10 -5 0 -10 5 -10 10 0 6 5 10 10 10 6 0 10
-4 10 -10z m854 -5 c-4 -8 -8 -15 -10 -15 -2 0 -4 7 -4 15 0 8 4 15 10 15 5 0
7 -7 4 -15z m123 9 c-3 -3 -12 -4 -19 -1 -8 3 -5 6 6 6 11 1 17 -2 13 -5z
m170 -16 c-3 -8 -6 -5 -6 6 -1 11 2 17 5 13 3 -3 4 -12 1 -19z m-77 8 c0 -2
-7 -7 -16 -10 -8 -3 -12 -2 -9 4 6 10 25 14 25 6z m-2168 -28 c12 -22 13 -27
16 -56 1 -7 8 -10 15 -7 6 4 4 0 -5 -8 -10 -8 -14 -17 -8 -23 5 -5 -3 -9 -21
-10 -28 -1 -28 -1 -9 13 24 17 26 33 5 33 -8 0 -15 7 -15 15 0 8 -5 15 -12 15
-6 0 -8 3 -5 6 4 4 13 1 21 -5 12 -10 14 -9 9 8 -3 13 -14 21 -27 21 -17 0
-18 2 -6 10 22 14 28 12 42 -12z m2048 18 c0 -3 -4 -8 -10 -11 -5 -3 -10 -1
-10 4 0 6 5 11 10 11 6 0 10 -2 10 -4z m-3877 -21 c-3 -9 -8 -14 -10 -11 -3 3
-2 9 2 15 9 16 15 13 8 -4z m162 -1 c20 -15 20 -16 -4 -12 -14 2 -26 9 -29 16
-5 16 9 15 33 -4z m95 6 c0 -5 -4 -10 -10 -10 -5 0 -10 5 -10 10 0 6 5 10 10
10 6 0 10 -4 10 -10z m480 0 c0 -5 -5 -10 -11 -10 -5 0 -7 5 -4 10 3 6 8 10
11 10 2 0 4 -4 4 -10z m47 4 c-3 -3 -12 -4 -19 -1 -8 3 -5 6 6 6 11 1 17 -2
13 -5z m3336 -9 c-3 -9 -8 -14 -10 -11 -3 3 -2 9 2 15 9 16 15 13 8 -4z
m-3610 -8 c9 -1 17 -7 17 -14 0 -9 -9 -8 -35 3 -20 8 -40 12 -45 9 -6 -3 -18
-2 -27 4 -13 7 -6 8 27 5 25 -3 53 -6 63 -7z m-843 -7 c0 -5 -4 -10 -10 -10
-5 0 -10 5 -10 10 0 6 5 10 10 10 6 0 10 -4 10 -10z m1160 0 c-8 -5 -19 -10
-25 -10 -5 0 -3 5 5 10 8 5 20 10 25 10 6 0 3 -5 -5 -10z m-1013 -32 c-3 -7
-5 -2 -5 12 0 14 2 19 5 13 2 -7 2 -19 0 -25z m208 22 c3 -5 1 -10 -4 -10 -6
0 -11 5 -11 10 0 6 2 10 4 10 3 0 8 -4 11 -10z m185 0 c0 -5 -2 -10 -4 -10 -3
0 -8 5 -11 10 -3 6 -1 10 4 10 6 0 11 -4 11 -10z m200 0 c0 -5 -5 -10 -11 -10
-5 0 -7 5 -4 10 3 6 8 10 11 10 2 0 4 -4 4 -10z m270 6 c0 -2 -7 -7 -16 -10
-8 -3 -12 -2 -9 4 6 10 25 14 25 6z m-397 -27 c21 0 21 -1 2 -8 -20 -8 -35 3
-34 24 0 6 3 4 6 -2 2 -7 14 -13 26 -14z m397 1 c0 -5 -5 -10 -11 -10 -5 0 -7
5 -4 10 3 6 8 10 11 10 2 0 4 -4 4 -10z m90 6 c0 -2 -9 -6 -20 -9 -11 -3 -18
-1 -14 4 5 9 34 13 34 5z m-1130 -30 c14 -18 14 -18 -7 -6 -12 8 -19 18 -16
23 3 4 6 7 7 5 1 -2 8 -12 16 -22z m290 14 c0 -5 -7 -7 -15 -4 -8 4 -15 8 -15
10 0 2 7 4 15 4 8 0 15 -4 15 -10z m1162 -9 c3 -9 2 -27 -2 -41 -6 -23 -7 -21
-17 16 -8 32 -7 41 3 41 7 0 14 -7 16 -16z m-1417 -1 c3 -5 1 -10 -4 -10 -6 0
-11 5 -11 10 0 6 2 10 4 10 3 0 8 -4 11 -10z m230 -19 c-6 -5 -25 10 -25 20 0
5 6 4 14 -3 8 -7 12 -15 11 -17z m2944 -8 c9 -6 13 -14 10 -17 -9 -10 -50 34
-42 47 5 8 8 7 11 -3 3 -8 12 -20 21 -27z m-3336 12 c-3 -9 -8 -14 -10 -11 -3
3 -2 9 2 15 9 16 15 13 8 -4z m463 6 c-4 -5 0 -11 6 -14 7 -2 10 -8 6 -12 -4
-4 -14 0 -22 8 -12 12 -13 17 -3 20 18 8 19 8 13 -2z m-2551 -17 c8 -9 22 -13
30 -10 9 3 15 0 15 -9 0 -8 5 -15 10 -15 6 0 10 -11 10 -25 0 -25 -1 -25 -25
-9 -20 13 -28 14 -40 4 -8 -7 -15 -19 -15 -28 0 -12 -10 -14 -62 -7 -35 4 -81
7 -102 6 -39 -1 -56 10 -56 37 0 9 16 12 60 9 42 -2 61 0 64 10 6 15 65 53 83
53 6 0 19 -7 28 -16z m2482 -8 c17 3 40 1 52 -5 15 -8 27 -9 40 -1 16 8 20 7
18 -8 -1 -12 -9 -18 -26 -17 -15 1 -30 -1 -36 -4 -5 -3 -19 -6 -31 -7 -17 -2
-21 2 -17 14 5 15 4 15 -8 -1 -11 -14 -20 -15 -46 -8 -23 7 -33 6 -37 -2 -2
-7 -5 0 -5 15 -1 22 3 26 19 23 14 -3 20 2 20 13 1 16 2 16 14 -1 10 -12 21
-15 43 -11z m863 14 c0 -5 -2 -10 -4 -10 -3 0 -8 5 -11 10 -3 6 -1 10 4 10 6
0 11 -4 11 -10z m143 -11 c-4 -15 -9 -17 -17 -9 -8 8 -7 13 4 20 8 5 16 10 17
10 0 0 -1 -9 -4 -21z m1797 -7 c0 -19 -5 -29 -15 -29 -8 0 -15 4 -15 9 0 4 5
8 10 8 6 0 10 7 10 16 0 8 -4 12 -10 9 -5 -3 -10 -1 -10 4 0 6 7 11 15 11 10
0 15 -10 15 -28z m-2570 8 c0 -5 -4 -10 -10 -10 -5 0 -10 5 -10 10 0 6 5 10
10 10 6 0 10 -4 10 -10z m920 6 c0 -2 -7 -6 -15 -10 -8 -3 -15 -1 -15 4 0 6 7
10 15 10 8 0 15 -2 15 -4z m1010 -6 c0 -5 -4 -10 -10 -10 -5 0 -10 5 -10 10 0
6 5 10 10 10 6 0 10 -4 10 -10z m-2433 -42 c-15 -9 -33 -10 -24 -1 4 3 -1 12
-11 20 -16 14 -16 14 1 9 9 -3 17 0 17 6 0 7 6 3 14 -8 11 -14 11 -21 3 -26z
m471 17 c-3 -3 -9 2 -12 12 -6 14 -5 15 5 6 7 -7 10 -15 7 -18z m62 15 c0 -5
-5 -10 -11 -10 -5 0 -7 5 -4 10 3 6 8 10 11 10 2 0 4 -4 4 -10z m664 -6 c3 -8
2 -12 -4 -9 -6 3 -10 10 -10 16 0 14 7 11 14 -7z m-1087 0 c-3 -3 -12 -4 -19
-1 -8 3 -5 6 6 6 11 1 17 -2 13 -5z m328 -4 c3 -5 -1 -10 -10 -10 -9 0 -13 5
-10 10 3 6 8 10 10 10 2 0 7 -4 10 -10z m-295 -10 c0 -5 -5 -10 -11 -10 -5 0
-7 5 -4 10 3 6 8 10 11 10 2 0 4 -4 4 -10z m1384 -15 c3 -8 1 -15 -4 -15 -6 0
-10 7 -10 15 0 8 2 15 4 15 2 0 6 -7 10 -15z m-1527 -37 c-3 -8 -6 -5 -6 6 -1
11 2 17 5 13 3 -3 4 -12 1 -19z m285 0 c-7 -7 -12 -8 -12 -2 0 14 12 26 19 19
2 -3 -1 -11 -7 -17z m2368 8 c0 -2 -8 -10 -17 -17 -16 -13 -17 -12 -4 4 13 16
21 21 21 13z m427 -2 c-3 -3 -12 -4 -19 -1 -8 3 -5 6 6 6 11 1 17 -2 13 -5z
m3549 -153 c16 -5 42 -12 57 -16 16 -3 44 -21 63 -40 19 -19 39 -35 45 -35 6
0 -3 13 -20 29 -32 30 -44 56 -13 29 9 -9 27 -19 38 -22 12 -4 29 -15 39 -26
12 -13 31 -20 55 -20 21 0 43 -7 50 -15 7 -8 23 -15 36 -15 16 0 28 -8 36 -25
11 -23 16 -25 87 -25 53 0 83 -5 99 -16 23 -16 28 -48 13 -73 -7 -11 -11 -10
-20 5 -11 18 -11 18 -26 0 -8 -11 -15 -16 -15 -10 0 15 -224 11 -243 -4 -13
-12 -13 -18 10 -57 13 -25 36 -54 50 -65 24 -18 28 -19 43 -5 16 14 18 14 23
-5 5 -20 27 -29 27 -10 0 6 5 10 10 10 14 0 12 -54 -2 -68 -21 -21 -55 -13
-103 27 -43 36 -52 39 -132 45 -70 6 -89 4 -110 -9 -32 -22 -38 -14 -11 14 18
20 27 22 67 17 40 -6 44 -5 31 9 -31 30 -72 29 -120 -4 -25 -17 -56 -30 -70
-30 -24 1 -23 1 4 10 17 4 46 26 65 48 20 22 43 41 51 42 47 5 74 -4 112 -38
34 -30 38 -31 18 -8 -60 70 -101 85 -169 61 -47 -16 -51 -8 -21 42 17 28 25
32 64 32 33 0 52 -7 74 -25 41 -34 52 -32 15 4 -17 16 -45 32 -63 36 -18 4
-54 22 -79 40 -26 19 -68 39 -94 46 -41 10 -54 9 -93 -6 l-45 -17 -39 27 c-31
22 -47 26 -72 21 -31 -5 -32 -5 -14 9 25 19 59 19 96 0 27 -14 34 -13 80 5 51
20 52 20 95 1 24 -10 66 -37 95 -60 28 -23 62 -41 73 -41 18 1 16 4 -10 15
-18 8 -33 15 -33 17 0 2 42 3 94 3 l94 0 50 -47 c41 -39 58 -48 84 -47 l33 2
-30 4 c-18 3 -48 22 -75 48 -65 61 -78 67 -144 54 -72 -13 -86 -8 -132 48 -20
25 -52 52 -70 59 -18 8 -35 18 -39 24 -8 12 -5 12 31 1z m-116 -16 c59 10 155
-33 192 -86 15 -22 24 -39 18 -39 -5 0 -12 5 -16 11 -3 6 -34 29 -68 51 -51
33 -69 39 -106 37 -64 -2 -68 -1 -81 24 -11 20 -11 21 4 9 11 -10 29 -12 57
-7z m-315 -171 c28 -26 31 -26 104 -18 42 4 105 8 141 8 36 -1 59 1 53 3 -30
11 -8 18 54 19 l68 2 -55 -20 c-30 -11 -59 -24 -63 -28 -5 -4 -50 -6 -100 -5
-51 1 -67 1 -37 -1 30 -2 65 -6 77 -9 22 -5 22 -6 -9 -34 -27 -24 -36 -27 -62
-20 -17 5 -40 9 -51 8 -11 -1 -1 -5 23 -11 26 -6 41 -14 39 -21 -3 -7 -11 -10
-18 -7 -8 3 -65 3 -126 2 -83 -3 -113 -1 -113 8 0 8 11 10 33 6 24 -4 48 0 81
15 35 15 63 20 102 17 53 -3 70 4 38 16 -9 3 -45 6 -80 6 -50 0 -67 4 -80 19
-9 10 -27 30 -40 45 -30 34 -15 34 21 0z m405 -19 c-10 -12 -10 -19 -2 -27 18
-18 -17 -39 -42 -26 -19 10 -18 11 5 24 l24 13 -25 1 c-22 1 -21 3 10 15 45
17 45 18 30 0z m80 -10 c-22 -23 -50 -26 -70 -8 -10 10 35 33 64 33 l29 0 -23
-25z m-155 -24 c-3 -6 -16 -11 -28 -11 -21 1 -21 1 3 15 27 14 36 13 25 -4z
m118 -31 c-6 -22 -11 -24 -33 -10 -13 9 -13 11 0 20 24 16 39 12 33 -10z
m-165 -2 c-3 -7 -20 -18 -39 -26 l-34 -14 24 26 c25 27 56 35 49 14z m87 -4
l38 -16 -24 -12 c-25 -13 -49 -10 -49 5 0 5 8 9 18 10 11 0 12 2 4 6 -7 3 -19
0 -27 -7 -8 -6 -19 -9 -25 -5 -5 3 -10 1 -10 -6 0 -25 -31 -49 -50 -39 -13 7
-20 6 -24 -5 -3 -8 -15 -15 -26 -15 -18 0 -19 3 -9 21 7 15 18 20 34 17 16 -4
34 5 60 29 42 38 41 38 90 17z m65 -44 c0 -21 -24 -27 -50 -10 -12 7 -10 11
10 19 36 14 40 13 40 -9z m-102 1 c18 -11 -10 -34 -32 -25 -13 5 -14 9 -5 20
13 16 19 17 37 5z m-171 -23 c-2 -7 -13 -12 -25 -10 -12 2 -30 -1 -39 -7 -14
-8 -11 -9 15 -5 36 7 40 -1 15 -36 -10 -14 -17 -26 -16 -27 2 -2 0 -16 -3 -33
-4 -19 -13 -30 -24 -30 -9 0 -25 -10 -36 -22 -19 -23 -19 -23 2 -5 35 29 49
22 49 -27 0 -24 -3 -48 -7 -52 -11 -10 -10 -26 1 -20 13 8 21 -18 14 -46 -3
-15 -2 -19 4 -11 6 9 14 3 25 -22 8 -19 11 -36 7 -37 -5 -2 -12 -30 -17 -63
l-7 -59 -29 72 c-24 59 -29 86 -28 142 1 39 0 70 -2 70 -2 0 -18 -24 -35 -54
-41 -74 -50 -76 -34 -8 26 111 33 130 60 157 l28 28 -25 -8 c-14 -4 -44 -18
-67 -31 -24 -14 -43 -23 -43 -20 0 2 12 17 26 34 14 16 36 47 48 68 12 22 37
47 56 56 41 21 94 24 87 6z m234 -3 c19 -8 31 -14 27 -15 -3 0 -14 -3 -24 -7
-12 -4 -15 -3 -10 5 4 7 2 12 -3 12 -6 0 -11 -4 -11 -8 0 -11 -45 -32 -67 -32
-13 0 -13 3 -3 15 8 9 21 13 34 10 17 -5 18 -4 6 4 -13 10 -13 12 0 21 18 12
12 13 51 -5z m-154 -32 c-5 -12 -19 -23 -29 -23 -17 0 -17 2 -3 23 8 13 21 24
29 24 11 0 12 -5 3 -24z m63 17 c0 -12 -25 -30 -42 -30 -15 0 -16 3 -6 19 11
17 48 26 48 11z m-117 -41 c-18 -36 -27 -37 -18 -2 5 23 4 25 -10 13 -13 -11
-15 -10 -10 2 4 9 17 16 29 16 22 0 23 -2 9 -29z m80 -19 c-3 -11 -13 -20 -23
-20 -13 0 -17 6 -13 20 3 11 13 20 23 20 13 0 17 -6 13 -20z m47 5 c-7 -8 -19
-15 -26 -15 -8 0 -11 6 -8 15 4 8 15 15 26 15 17 0 18 -3 8 -15z m-97 -14 c-7
-27 -33 -36 -33 -12 0 17 11 28 32 30 3 1 4 -8 1 -18z m-77 -17 c-4 -9 -9 -15
-11 -12 -3 3 -3 13 1 22 4 9 9 15 11 12 3 -3 3 -13 -1 -22z m29 -11 c-2 -10
-4 -20 -5 -23 -2 -3 -3 -16 -4 -29 -1 -30 -26 -41 -26 -12 0 12 4 21 10 21 5
0 7 7 4 15 -7 18 2 45 15 45 5 0 8 -8 6 -17z m115 8 c0 -5 -7 -14 -15 -21 -16
-14 -18 -10 -9 14 6 17 24 22 24 7z m-37 -21 c-6 -22 -33 -28 -33 -7 0 17 10
27 26 27 7 0 10 -8 7 -20z m-46 -12 c-5 -28 -27 -36 -27 -10 0 17 7 24 27 31
2 1 1 -9 0 -21z m-76 -25 c-10 -17 -10 -16 -11 3 0 23 13 41 18 25 2 -6 -1
-18 -7 -28z m137 6 c-2 -6 -7 -10 -12 -9 -5 1 -13 -5 -18 -14 -11 -20 -28 -21
-28 -1 0 9 10 20 23 25 30 12 39 12 35 -1z m-70 -69 c1 -29 -3 -48 -9 -45 -15
10 -10 -38 6 -61 8 -12 12 -24 8 -27 -10 -11 -23 3 -23 24 0 10 -5 19 -11 19
-6 0 -8 -9 -4 -22 6 -23 6 -23 -10 -3 -9 12 -12 21 -5 23 5 2 10 13 10 25 0
12 7 30 15 41 9 12 11 25 5 41 -8 22 -5 35 11 35 4 0 7 -23 7 -50z m-65 5 c-7
-21 -13 -19 -13 6 0 11 4 18 10 14 5 -3 7 -12 3 -20z m124 3 c-3 -8 -6 -5 -6
6 -1 11 2 17 5 13 3 -3 4 -12 1 -19z m203 14 c0 -4 -15 -7 -32 -7 -27 0 -34
-4 -36 -23 -4 -27 22 -40 43 -22 12 10 15 9 15 -7 0 -14 -7 -19 -27 -18 -25 0
-28 -3 -25 -32 1 -24 -2 -33 -13 -33 -12 0 -15 14 -15 69 0 46 -4 71 -12 74
-7 3 13 6 45 6 31 1 57 -2 57 -7z m405 -67 c0 -63 -3 -75 -17 -75 -14 0 -17
13 -20 75 -3 69 -2 75 17 75 18 0 20 -7 20 -75z m82 49 c20 -20 24 -31 19 -57
-6 -31 -38 -67 -59 -67 -6 0 -1 7 11 16 16 11 22 25 22 52 0 45 -8 58 -40 71
-25 10 -25 10 -2 10 13 1 34 -11 49 -25z m-777 -1 c0 -10 -4 -24 -9 -31 -6
-10 -10 -7 -13 12 -3 14 -3 28 0 31 11 11 22 4 22 -12z m67 -2 c1 -11 -5 -22
-13 -25 -9 -3 -14 1 -14 13 0 32 25 44 27 12z m283 11 c0 -13 -12 -22 -22 -16
-10 6 -1 24 13 24 5 0 9 -4 9 -8z m-377 -52 c3 -11 1 -23 -4 -26 -5 -3 -9 6
-9 20 0 31 6 34 13 6z m101 -13 c-2 -7 7 -24 21 -37 26 -24 34 -55 13 -47 -7
2 -12 12 -10 22 2 10 -1 14 -7 10 -6 -3 -14 2 -18 12 -4 10 -13 24 -21 32 -11
11 -11 15 -1 22 17 10 30 2 23 -14z m274 -27 c0 -23 -5 -40 -12 -40 -7 0 -10
16 -9 42 2 53 1 50 12 43 6 -3 9 -23 9 -45z m108 39 c3 -5 -4 -9 -15 -9 -20 0
-26 -13 -22 -52 1 -10 -4 -18 -11 -18 -9 0 -12 13 -11 42 1 24 2 44 2 44 3 6
53 0 57 -7z m94 -15 c0 -8 -5 -14 -12 -14 -6 0 -8 3 -5 7 4 3 2 12 -5 20 -8
11 -7 12 6 7 9 -3 16 -12 16 -20z m310 -19 c0 -29 -4 -45 -12 -45 -9 0 -12 14
-11 42 2 52 1 48 13 48 6 0 10 -20 10 -45z m35 35 c3 -5 -1 -10 -10 -10 -9 0
-13 5 -10 10 3 6 8 10 10 10 2 0 7 -4 10 -10z m96 -38 c4 -29 2 -42 -7 -42 -7
0 -13 18 -16 45 -4 57 15 54 23 -3z m56 18 c0 -23 -3 -27 -13 -19 -10 8 -11
16 -3 30 13 26 16 24 16 -11z m63 24 c0 -2 -4 -14 -10 -28 -13 -34 -25 -33
-25 2 0 20 5 28 18 28 9 0 17 -1 17 -2z m104 -10 c20 -19 20 -35 3 -59 -13
-16 -14 -15 -10 12 3 19 -1 36 -12 46 -9 10 -12 17 -6 17 5 0 17 -7 25 -16z
m74 -29 c1 -29 -3 -45 -11 -45 -8 0 -12 17 -12 45 0 27 4 45 11 45 7 0 12 -18
12 -45z m63 -2 c4 -32 2 -43 -8 -43 -8 0 -13 13 -13 35 0 22 -6 38 -17 45 -16
9 -15 10 7 8 21 -3 26 -9 31 -45z m-856 20 c-4 -27 12 -51 37 -55 17 -2 19 -5
8 -9 -29 -12 -60 8 -60 39 0 24 7 42 16 42 1 0 1 -8 -1 -17z m445 7 c0 -5 -2
-10 -4 -10 -3 0 -8 5 -11 10 -3 6 -1 10 4 10 6 0 11 -4 11 -10z m212 -15 c-3
-16 2 -33 14 -47 19 -21 19 -21 -3 -9 -30 15 -36 28 -29 57 8 32 25 31 18 -1z
m-1085 -43 c7 -7 13 -17 13 -20 0 -4 10 -13 21 -21 16 -9 24 -10 29 -1 5 7 11
6 21 -6 13 -16 12 -17 -6 -10 -16 6 -18 5 -7 -5 17 -18 15 -40 -3 -33 -8 4
-15 12 -15 20 0 8 -6 11 -15 8 -9 -4 -18 1 -22 12 -3 11 -12 23 -20 27 -7 4
-13 13 -13 18 0 6 -7 17 -15 26 -8 8 -12 19 -9 25 4 6 11 3 17 -8 6 -11 17
-25 24 -32z m879 4 c1 -17 -2 -23 -12 -19 -15 5 -19 25 -7 36 12 13 18 7 19
-17z m160 -18 c4 -5 1 -15 -5 -21 -8 -8 -11 -8 -11 1 0 7 -12 12 -26 12 -20 0
-25 -4 -20 -16 3 -9 1 -14 -5 -12 -6 2 -10 7 -10 11 1 4 1 15 1 25 0 15 6 17
35 14 19 -2 38 -9 41 -14z m-1071 -28 c9 14 35 -6 35 -28 0 -13 -3 -12 -20 3
-13 12 -20 14 -20 5 0 -10 -3 -10 -15 0 -8 7 -15 17 -15 22 0 6 6 6 14 -1 10
-9 16 -9 21 -1z m-14 -74 c0 -12 3 -16 6 -9 3 9 15 5 41 -12 36 -24 37 -25 33
-81 l-3 -57 -18 39 c-10 22 -34 55 -54 73 -28 28 -36 42 -36 70 1 34 2 35 15
17 8 -11 15 -29 16 -40z m87 8 c-10 -10 -28 6 -28 24 0 15 1 15 17 -1 9 -9 14
-19 11 -23z m113 1 c17 -6 19 -9 8 -16 -8 -5 -16 -3 -20 3 -4 7 -16 13 -26 14
-15 2 -14 0 5 -13 27 -19 28 -33 2 -33 -11 0 -20 5 -20 11 0 5 -4 7 -10 4 -5
-3 -18 -1 -29 4 -14 8 -20 8 -23 -1 -2 -6 -10 -8 -16 -4 -17 10 -15 27 2 20 8
-3 17 -1 21 5 4 8 12 8 26 1 16 -9 19 -7 19 8 0 27 10 33 26 17 8 -7 24 -17
35 -20z m-151 -2 c0 -13 -3 -13 -15 -3 -8 7 -15 16 -15 21 0 5 7 6 15 3 8 -4
15 -13 15 -21z m427 -70 c-2 -16 -4 -5 -4 22 0 28 2 40 4 28 2 -13 2 -35 0
-50z m53 42 c0 -8 -4 -16 -9 -19 -5 -3 -8 5 -8 19 0 14 3 22 8 19 5 -3 9 -11
9 -19z m70 -20 c0 -25 -4 -45 -8 -45 -5 0 -8 20 -8 45 1 25 4 45 9 45 4 0 7
-20 7 -45z m60 0 c0 -25 -4 -45 -10 -45 -5 0 -10 20 -10 45 0 25 5 45 10 45 6
0 10 -20 10 -45z m140 -1 c0 -12 -4 -25 -9 -28 -4 -3 -6 6 -3 19 2 14 -2 33
-9 43 -13 15 -12 16 4 3 9 -7 17 -24 17 -37z m95 1 c0 -25 -3 -45 -7 -45 -5 0
-8 20 -8 45 0 25 3 45 8 45 4 0 7 -20 7 -45z m153 33 c17 -17 15 -53 -5 -69
-15 -13 -15 -12 -5 8 16 29 15 39 -4 57 -8 9 -12 16 -7 16 5 0 14 -5 21 -12z
m-306 -65 c7 -9 7 -13 0 -13 -18 0 -34 39 -25 63 7 20 8 20 11 -8 2 -16 8 -36
14 -42z m241 48 c-3 -10 1 -30 8 -42 11 -22 11 -23 -4 -10 -17 13 -23 52 -10
64 10 11 11 8 6 -12z m-745 -9 c3 -9 -2 -13 -14 -10 -9 1 -19 9 -22 16 -3 9 2
13 14 10 9 -1 19 -9 22 -16z m-97 -2 c5 0 9 -4 9 -10 0 -14 -13 -12 -36 6 -17
14 -17 15 -1 10 10 -3 23 -6 28 -6z m149 0 c0 -5 -9 -10 -20 -10 -11 0 -20 5
-20 10 0 6 9 10 20 10 11 0 20 -4 20 -10z m80 -9 c0 -17 -136 -36 -145 -21 -5
8 1 11 16 10 44 -4 80 0 76 8 -3 4 8 8 24 9 16 1 29 -2 29 -6z m-162 -18 c5
-18 -10 -16 -34 2 -18 15 -18 15 5 13 14 -2 26 -9 29 -15z m-61 -25 c21 -18
29 -23 19 -10 -11 12 -15 22 -10 21 15 -1 97 -64 102 -78 3 -10 -1 -10 -19 2
-13 10 -37 17 -54 17 -30 0 -46 12 -84 63 -22 29 5 20 46 -15z"/>
<path d="M1194 3909 c-3 -6 -2 -15 3 -20 5 -5 9 -1 9 11 0 23 -2 24 -12 9z"/>
<path d="M1425 3320 c-3 -5 -1 -10 4 -10 6 0 11 5 11 10 0 6 -2 10 -4 10 -3 0
-8 -4 -11 -10z"/>
<path d="M1466 3276 c7 -17 44 -22 44 -6 0 6 -4 10 -9 10 -5 0 -17 3 -25 6
-12 5 -15 2 -10 -10z"/>
<path d="M1433 3263 c0 -18 14 -33 32 -33 6 1 2 5 -7 11 -10 5 -15 16 -12 24
4 8 2 15 -3 15 -5 0 -10 -8 -10 -17z"/>
<path d="M1493 3243 c9 -2 17 -11 17 -18 0 -9 -6 -12 -15 -9 -8 4 -15 1 -15
-5 0 -6 11 -10 25 -9 16 2 24 7 21 15 -3 7 0 13 7 14 17 1 -25 18 -43 17 -10
0 -9 -2 3 -5z"/>
<path d="M1550 3230 c0 -5 7 -7 15 -4 8 4 15 8 15 10 0 2 -7 4 -15 4 -8 0 -15
-4 -15 -10z"/>
<path d="M2550 3646 c0 -2 8 -10 18 -17 15 -13 16 -12 3 4 -13 16 -21 21 -21
13z"/>
<path d="M2794 3627 c-4 -7 -3 -8 1 -4 5 4 15 -3 22 -15 12 -23 12 -23 13 -2
0 25 -26 39 -36 21z"/>
<path d="M3281 3557 c-13 -21 -12 -21 5 -5 10 10 16 20 13 22 -3 3 -11 -5 -18
-17z"/>
<path d="M2967 3556 c-4 -10 -1 -13 9 -9 7 3 14 9 14 14 0 14 -17 10 -23 -5z"/>
<path d="M2806 3552 c-3 -5 1 -9 9 -9 8 0 12 4 9 9 -3 4 -7 8 -9 8 -2 0 -6 -4
-9 -8z"/>
<path d="M2610 3540 c0 -5 5 -10 11 -10 5 0 7 5 4 10 -3 6 -8 10 -11 10 -2 0
-4 -4 -4 -10z"/>
<path d="M2920 3548 c0 -3 9 -15 20 -28 11 -13 20 -19 20 -13 0 5 -9 18 -20
28 -11 10 -20 16 -20 13z"/>
<path d="M2815 3520 c-3 -5 -1 -10 4 -10 6 0 11 5 11 10 0 6 -2 10 -4 10 -3 0
-8 -4 -11 -10z"/>
<path d="M2468 3513 c6 -2 18 -2 25 0 6 3 1 5 -13 5 -14 0 -19 -2 -12 -5z"/>
<path d="M2975 3501 c-3 -5 -1 -12 5 -16 5 -3 10 1 10 9 0 18 -6 21 -15 7z"/>
<path d="M2826 3488 c3 -5 10 -6 15 -3 13 9 11 12 -6 12 -8 0 -12 -4 -9 -9z"/>
<path d="M2898 3493 c7 -3 16 -2 19 1 4 3 -2 6 -13 5 -11 0 -14 -3 -6 -6z"/>
<path d="M3230 3489 c0 -5 5 -7 10 -4 6 3 10 8 10 11 0 2 -4 4 -10 4 -5 0 -10
-5 -10 -11z"/>
<path d="M3313 3472 c-1 -22 0 -24 9 -8 6 10 6 22 2 26 -5 5 -10 -3 -11 -18z"/>
<path d="M3203 3478 c1 -6 -9 -17 -23 -25 -14 -7 -19 -13 -12 -13 6 0 12 -4
12 -10 0 -5 -7 -6 -17 -3 -11 4 -14 3 -9 -5 4 -7 3 -12 -3 -12 -5 0 -9 -8 -8
-19 1 -12 7 -17 19 -13 10 2 18 8 18 13 0 5 -7 5 -17 2 -11 -5 -14 -3 -9 6 5
7 16 11 26 8 13 -3 16 0 13 14 -3 10 2 26 11 34 18 19 21 35 6 35 -5 0 -9 -5
-7 -12z"/>
<path d="M2810 3470 c0 -5 5 -10 11 -10 5 0 7 5 4 10 -3 6 -8 10 -11 10 -2 0
-4 -4 -4 -10z"/>
<path d="M2270 3459 c0 -5 5 -9 10 -9 6 0 10 -12 11 -27 l1 -28 8 25 c13 39
11 46 -10 47 -11 1 -20 -2 -20 -8z"/>
<path d="M2020 3437 c-19 -14 -15 -43 6 -51 9 -3 12 -1 9 4 -3 6 1 10 9 10 9
0 16 5 16 11 0 6 -9 8 -20 4 -11 -3 -20 -2 -20 4 0 5 8 11 18 13 9 2 12 6 7
10 -6 3 -17 1 -25 -5z"/>
<path d="M2215 3440 c-3 -5 -5 -10 -3 -11 33 -8 38 -7 27 7 -14 17 -16 17 -24
4z"/>
<path d="M2932 3430 c0 -14 2 -19 5 -12 2 6 2 18 0 25 -3 6 -5 1 -5 -13z"/>
<path d="M2341 3405 c-21 -20 -29 -35 -23 -39 6 -4 11 -23 10 -42 -1 -24 -4
-31 -10 -22 -6 8 -7 5 -3 -10 6 -20 4 -23 -12 -18 -10 3 -25 1 -33 -5 -12 -8
-10 -9 7 -4 12 3 24 1 28 -5 7 -11 48 -14 58 -4 3 4 -1 20 -9 36 -16 30 -12
64 5 53 5 -3 13 0 17 6 5 8 1 10 -14 7 -20 -5 -40 17 -27 30 3 3 5 0 5 -6 0
-7 7 -12 15 -12 8 0 15 5 15 11 0 5 -5 7 -11 4 -6 -4 -5 2 3 14 16 26 32 22
35 -10 1 -14 0 -17 -3 -6 -3 9 -10 17 -15 17 -6 0 -5 -8 1 -20 11 -21 39 -28
41 -10 4 30 3 40 -2 38 -4 -2 -15 4 -25 13 -18 16 -21 15 -53 -16z"/>
<path d="M2106 3415 c-8 -23 -8 -27 3 -21 5 4 11 0 14 -6 2 -7 8 -10 12 -6 4
4 0 16 -8 28 -13 18 -15 19 -21 5z"/>
<path d="M2991 3406 c-8 -10 -9 -16 -1 -21 5 -3 10 -1 10 4 0 6 7 11 16 11 8
0 12 5 9 10 -9 14 -20 12 -34 -4z"/>
<path d="M2077 3403 c-10 -9 -9 -51 1 -57 4 -3 9 11 9 30 1 36 0 38 -10 27z"/>
<path d="M2229 3401 c9 -6 10 -10 2 -14 -8 -4 -8 -5 1 -3 20 4 21 26 1 26 -14
0 -15 -2 -4 -9z"/>
<path d="M3195 3380 c-8 -13 3 -30 18 -30 8 0 7 3 -2 9 -7 5 -10 14 -7 20 4 6
5 11 2 11 -3 0 -8 -4 -11 -10z"/>
<path d="M1994 3368 c-4 -6 -3 -8 3 -5 5 4 19 -2 31 -13 12 -11 23 -16 27 -11
3 5 -4 12 -15 16 -11 3 -20 11 -20 16 0 13 -17 11 -26 -3z"/>
<path d="M2101 3364 c0 -11 3 -14 6 -6 3 7 2 16 -1 19 -3 4 -6 -2 -5 -13z"/>
<path d="M2230 3366 c0 -2 8 -10 18 -17 15 -13 16 -12 3 4 -13 16 -21 21 -21
13z"/>
<path d="M2480 3358 c0 -9 5 -20 11 -23 17 -11 18 -2 3 19 -12 17 -14 17 -14
4z"/>
<path d="M3116 3355 c4 -8 12 -15 20 -15 19 0 18 16 -2 24 -22 9 -24 8 -18 -9z"/>
<path d="M3400 3360 c0 -5 5 -10 11 -10 5 0 7 5 4 10 -3 6 -8 10 -11 10 -2 0
-4 -4 -4 -10z"/>
<path d="M2120 3344 c0 -8 5 -12 10 -9 6 4 8 11 5 16 -9 14 -15 11 -15 -7z"/>
<path d="M2285 3351 c-4 -7 0 -8 11 -4 13 5 16 3 11 -10 -3 -9 -2 -17 4 -17
14 0 7 32 -8 37 -6 2 -14 -1 -18 -6z"/>
<path d="M3020 3350 c-8 -5 -12 -12 -9 -15 4 -3 12 1 19 10 14 17 11 19 -10 5z"/>
<path d="M2373 3335 c-25 -11 -27 -14 -15 -32 7 -11 92 -45 92 -36 0 2 -20 13
-45 24 -25 11 -45 22 -45 25 0 3 5 2 10 -1 6 -3 10 -1 10 4 0 6 5 11 11 11 5
0 7 -5 3 -12 -4 -6 -3 -8 4 -4 6 3 18 -1 27 -10 9 -9 18 -14 20 -12 3 3 -7 16
-22 29 -23 19 -32 22 -50 14z"/>
<path d="M2152 3327 c-6 -7 -7 -19 -3 -26 6 -9 10 -5 13 13 6 30 5 31 -10 13z"/>
<path d="M3147 3333 c-26 -7 -10 -23 21 -22 20 1 22 3 8 6 -15 4 -16 7 -5 14
15 9 6 10 -24 2z"/>
<path d="M3031 3321 c-9 -6 -6 -8 13 -8 14 0 23 3 20 8 -7 11 -15 11 -33 0z"/>
<path d="M2040 3293 c0 -14 2 -15 9 -4 5 8 14 10 21 6 9 -5 11 -4 6 3 -11 18
-36 14 -36 -5z"/>
<path d="M2102 3280 c0 -14 2 -19 5 -12 2 6 2 18 0 25 -3 6 -5 1 -5 -13z"/>
<path d="M2230 3280 c0 -5 5 -10 11 -10 5 0 7 5 4 10 -3 6 -8 10 -11 10 -2 0
-4 -4 -4 -10z"/>
<path d="M3046 3274 c-4 -9 -4 -19 -1 -22 2 -3 7 3 11 12 4 9 4 19 1 22 -2 3
-7 -3 -11 -12z"/>
<path d="M3140 3273 c-10 -12 -11 -18 -2 -21 7 -2 13 -16 13 -30 1 -17 3 -21
6 -9 2 9 9 15 14 12 15 -10 10 2 -8 21 -13 13 -14 19 -5 22 13 4 17 22 5 22
-5 -1 -15 -8 -23 -17z"/>
<path d="M2061 3256 c-8 -10 -9 -16 -1 -21 5 -3 10 -11 10 -16 0 -6 -4 -7 -10
-4 -5 3 -10 1 -10 -4 0 -16 20 -13 26 4 4 8 10 15 16 15 5 0 6 -5 2 -12 -4 -7
-3 -8 4 -4 13 8 15 -4 6 -29 -6 -13 -9 -14 -16 -3 -7 9 -8 7 -3 -7 4 -11 8
-26 8 -32 0 -7 5 -13 10 -13 5 0 6 7 3 16 -5 14 -4 15 9 4 10 -8 15 -9 15 -1
0 6 -4 11 -10 11 -14 0 -12 13 6 36 14 18 15 18 9 -6 l-6 -25 15 25 c21 35 20
39 -9 34 -17 -3 -25 0 -25 10 0 9 -7 12 -20 9 -16 -4 -19 -2 -14 11 8 20 0 21
-15 2z"/>
<path d="M2380 3263 c0 -13 -55 -34 -65 -25 -4 4 -4 -3 -1 -15 5 -15 3 -23 -4
-23 -8 0 -10 -9 -6 -25 5 -18 2 -25 -8 -25 -8 0 -13 8 -11 18 1 9 0 12 -2 5
-2 -6 -14 -13 -25 -15 -28 -4 -33 -38 -6 -38 15 0 18 -4 13 -17 -4 -10 -10
-26 -12 -36 -5 -17 -6 -17 -20 0 -8 10 -12 13 -9 6 4 -6 2 -13 -4 -15 -5 -1
-6 -9 -1 -16 11 -18 41 -4 52 27 8 19 12 22 19 12 4 -8 6 -21 2 -29 -4 -11 -1
-14 11 -9 8 3 18 1 21 -6 2 -7 5 -5 5 5 1 9 -4 18 -11 20 -6 2 -8 10 -4 17 6
9 12 9 26 -4 11 -10 20 -12 24 -6 4 5 -3 12 -14 16 -11 3 -20 11 -20 16 0 12
6 11 33 -2 21 -9 21 -9 3 5 -10 8 -15 19 -11 25 3 6 2 11 -4 11 -5 0 -11 -6
-14 -12 -3 -7 -5 -4 -5 7 -1 11 -2 29 -4 40 -2 12 4 21 16 23 11 3 16 0 11 -7
-3 -6 -11 -9 -16 -6 -14 9 -11 -11 5 -24 10 -9 16 -8 26 3 6 9 9 20 5 25 -3 6
4 24 16 41 13 16 20 33 16 37 -4 3 -7 0 -7 -8 0 -11 -2 -11 -10 1 -5 8 -10 10
-10 3z m-110 -123 c0 -5 -4 -10 -10 -10 -5 0 -10 5 -10 10 0 6 5 10 10 10 6 0
10 -4 10 -10z m50 -20 c0 -13 -6 -20 -17 -19 -11 0 -13 3 -5 6 17 7 15 21 -5
26 -14 4 -12 5 5 6 16 1 22 -5 22 -19z"/>
<path d="M1975 3240 c-3 -5 -2 -10 4 -10 5 0 13 5 16 10 3 6 2 10 -4 10 -5 0
-13 -4 -16 -10z"/>
<path d="M2170 3230 c0 -14 5 -32 10 -40 8 -12 10 -10 10 10 0 14 -5 32 -10
40 -8 12 -10 10 -10 -10z"/>
<path d="M2220 3239 c0 -5 5 -7 10 -4 6 3 10 8 10 11 0 2 -4 4 -10 4 -5 0 -10
-5 -10 -11z"/>
<path d="M2395 3214 c-12 -12 -13 -19 -4 -30 12 -15 3 -38 -12 -29 -5 4 -9 1
-9 -4 0 -6 4 -11 9 -11 15 0 33 29 28 45 -4 8 -1 17 5 21 6 4 8 3 4 -4 -3 -6
-3 -13 2 -16 4 -2 9 6 10 20 2 28 -10 31 -33 8z"/>
<path d="M1970 3198 c0 -9 5 -20 10 -23 13 -8 13 5 0 25 -8 13 -10 13 -10 -2z"/>
<path d="M2251 3194 c0 -11 3 -14 6 -6 3 7 2 16 -1 19 -3 4 -6 -2 -5 -13z"/>
<path d="M3170 3200 c0 -5 5 -10 11 -10 5 0 7 5 4 10 -3 6 -8 10 -11 10 -2 0
-4 -4 -4 -10z"/>
<path d="M3076 3182 c-2 -4 4 -8 14 -8 10 0 16 4 14 8 -3 4 -9 8 -14 8 -5 0
-11 -4 -14 -8z"/>
<path d="M1916 3157 c3 -10 9 -15 12 -12 3 3 0 11 -7 18 -10 9 -11 8 -5 -6z"/>
<path d="M2191 3154 c0 -11 3 -14 6 -6 3 7 2 16 -1 19 -3 4 -6 -2 -5 -13z"/>
<path d="M3150 3160 c0 -5 5 -10 10 -10 6 0 10 5 10 10 0 6 -4 10 -10 10 -5 0
-10 -4 -10 -10z"/>
<path d="M1997 3153 c-3 -5 -1 -17 4 -28 7 -17 8 -17 8 8 1 27 -4 34 -12 20z"/>
<path d="M2056 3152 c-3 -5 1 -9 9 -9 8 0 12 4 9 9 -3 4 -7 8 -9 8 -2 0 -6 -4
-9 -8z"/>
<path d="M2140 3149 c0 -5 5 -7 10 -4 6 3 10 8 10 11 0 2 -4 4 -10 4 -5 0 -10
-5 -10 -11z"/>
<path d="M2166 3145 c-3 -8 -1 -15 4 -15 6 0 10 7 10 15 0 8 -2 15 -4 15 -2 0
-6 -7 -10 -15z"/>
<path d="M3185 3140 c-3 -5 -1 -10 4 -10 6 0 11 5 11 10 0 6 -2 10 -4 10 -3 0
-8 -4 -11 -10z"/>
<path d="M2395 3130 c-4 -6 -12 -7 -18 -3 -7 4 -6 0 2 -10 18 -22 27 -21 27 3
0 23 -2 24 -11 10z"/>
<path d="M2060 3116 c0 -9 6 -13 15 -10 9 4 18 -2 24 -17 10 -24 10 -24 10 4
1 15 -3 27 -8 27 -5 0 -16 3 -25 6 -10 4 -16 1 -16 -10z"/>
<path d="M2120 3120 c0 -5 7 -7 15 -4 8 4 15 8 15 10 0 2 -7 4 -15 4 -8 0 -15
-4 -15 -10z"/>
<path d="M1827 3099 c4 -15 3 -20 -5 -15 -8 5 -10 2 -6 -9 6 -14 9 -13 26 5
11 12 17 24 14 27 -3 4 -6 3 -6 -2 0 -4 -6 -2 -14 4 -12 10 -13 8 -9 -10z"/>
<path d="M2158 3108 c-14 -11 -14 -15 -4 -25 8 -7 18 -8 27 -2 11 7 10 9 -5 9
-15 0 -16 3 -6 15 15 18 10 19 -12 3z"/>
<path d="M2210 3100 c0 -4 9 -10 20 -13 11 -3 20 -2 20 3 0 4 -9 10 -20 13
-11 3 -20 2 -20 -3z"/>
<path d="M3128 3103 c7 -3 16 -2 19 1 4 3 -2 6 -13 5 -11 0 -14 -3 -6 -6z"/>
<path d="M1970 3084 c0 -9 -5 -12 -12 -8 -9 5 -8 2 1 -9 8 -10 10 -21 6 -25
-4 -4 -10 -1 -12 6 -5 14 -23 17 -23 3 0 -17 34 -22 49 -6 9 9 11 15 4 15 -6
0 -9 9 -6 20 3 11 3 20 -1 20 -3 0 -6 -7 -6 -16z"/>
<path d="M2020 3072 c-13 -14 -12 -15 3 -9 12 5 17 1 17 -13 0 -11 5 -20 10
-20 13 0 12 10 -3 36 -11 20 -13 20 -27 6z"/>
<path d="M1840 3055 c-7 -9 -21 -13 -30 -10 -10 3 -23 -2 -31 -12 -13 -16 -12
-17 4 -4 9 8 21 11 24 7 4 -4 1 -12 -7 -17 -13 -9 -12 -10 2 -6 17 6 33 -17
29 -40 -1 -7 3 -13 9 -13 5 0 10 7 10 16 0 9 5 12 12 8 7 -4 8 -3 4 4 -11 19
3 35 19 22 9 -8 15 -8 20 0 4 6 1 9 -7 8 -8 -2 -12 5 -11 17 1 17 0 18 -10 5
-14 -18 -47 -25 -47 -10 0 5 4 10 9 10 5 0 11 7 15 15 7 19 2 19 -14 0z"/>
<path d="M2133 3062 c-7 -4 -9 -13 -4 -21 6 -9 10 -7 14 8 3 12 4 21 4 21 -1
0 -7 -4 -14 -8z"/>
<path d="M3138 3064 c-8 -7 23 -44 37 -44 6 0 6 3 -1 8 -6 4 -15 15 -20 25 -6
10 -13 15 -16 11z"/>
<path d="M1922 3004 c-7 -14 -8 -23 -2 -19 5 3 10 -1 10 -10 0 -15 1 -15 16
-1 8 9 20 13 26 10 6 -4 5 2 -1 15 -13 24 -26 29 -17 6 3 -9 0 -15 -8 -15 -9
0 -12 7 -9 20 7 28 -2 25 -15 -6z"/>
<path d="M2056 3001 c-9 -10 -16 -22 -16 -28 0 -6 -7 -13 -15 -17 -8 -3 -15 0
-15 6 0 6 -3 9 -6 6 -3 -3 0 -15 8 -27 11 -18 10 -23 -7 -36 -11 -9 -14 -14
-7 -10 6 3 12 1 12 -4 0 -6 7 -11 15 -11 9 0 12 6 8 16 -3 9 0 20 8 25 10 6
10 9 2 9 -7 0 -13 4 -13 8 0 5 16 8 35 8 22 -1 35 -6 35 -15 0 -8 -6 -11 -17
-6 -14 5 -15 4 -6 -6 10 -10 10 -16 0 -27 -9 -12 -9 -16 1 -19 6 -3 9 -9 6
-15 -3 -5 3 -18 15 -29 24 -23 29 -14 6 11 -14 15 -14 18 0 30 13 10 15 9 15
-10 0 -19 2 -20 15 -10 12 10 13 16 4 27 -7 7 -9 17 -5 20 4 4 11 1 16 -7 6
-8 10 -10 10 -5 0 6 -12 21 -26 35 -28 26 -47 66 -39 80 10 17 -24 18 -39 1z
m24 -9 c0 -5 -7 -9 -15 -9 -8 0 -12 4 -9 9 3 4 9 8 15 8 5 0 9 -4 9 -8z m-15
-32 c3 -5 1 -10 -4 -10 -6 0 -11 5 -11 10 0 6 2 10 4 10 3 0 8 -4 11 -10z m57
-55 c0 -5 -5 -11 -10 -13 -5 -1 -9 4 -9 13 0 9 4 14 9 13 5 -2 10 -8 10 -13z"/>
<path d="M2183 3013 c9 -2 25 -2 35 0 9 3 1 5 -18 5 -19 0 -27 -2 -17 -5z"/>
<path d="M2270 3011 c0 -17 38 -33 46 -19 4 6 3 8 -4 4 -6 -3 -18 1 -26 10 -9
8 -16 11 -16 5z"/>
<path d="M1995 2990 c3 -5 8 -10 11 -10 2 0 4 5 4 10 0 6 -5 10 -11 10 -5 0
-7 -4 -4 -10z"/>
<path d="M2151 2973 c-8 -14 -12 -15 -25 -4 -14 12 -16 12 -10 -2 12 -32 46
-29 52 6 4 22 -4 22 -17 0z"/>
<path d="M2190 2980 c0 -5 5 -10 10 -10 6 0 10 5 10 10 0 6 -4 10 -10 10 -5 0
-10 -4 -10 -10z"/>
<path d="M1811 2944 c0 -11 3 -14 6 -6 3 7 2 16 -1 19 -3 4 -6 -2 -5 -13z"/>
<path d="M1951 2924 c0 -11 3 -14 6 -6 3 7 2 16 -1 19 -3 4 -6 -2 -5 -13z"/>
<path d="M3145 2930 c-3 -5 -1 -10 4 -10 6 0 11 5 11 10 0 6 -2 10 -4 10 -3 0
-8 -4 -11 -10z"/>
<path d="M1857 2917 c-3 -8 1 -14 8 -14 7 0 11 6 8 14 -3 7 -6 13 -8 13 -2 0
-5 -6 -8 -13z"/>
<path d="M1850 2882 c0 -5 9 -17 20 -27 23 -21 27 -4 4 19 -17 18 -24 20 -24
8z"/>
<path d="M1795 2860 c3 -5 8 -10 11 -10 2 0 4 5 4 10 0 6 -5 10 -11 10 -5 0
-7 -4 -4 -10z"/>
<path d="M1827 2857 c-3 -8 -1 -20 5 -28 8 -11 9 -10 4 4 -3 11 -2 16 4 12 6
-3 10 -13 10 -21 0 -8 5 -14 10 -14 16 0 11 26 -9 44 -15 14 -20 14 -24 3z"/>
<path d="M2066 2808 c3 -4 12 -8 20 -8 8 0 14 4 14 8 0 4 -9 8 -19 8 -11 0
-17 -4 -15 -8z"/>
<path d="M2146 2795 c-9 -26 -7 -32 5 -12 6 10 9 21 6 23 -2 3 -7 -2 -11 -11z"/>
<path d="M2093 2778 c2 -7 10 -12 16 -10 6 1 11 -3 11 -10 0 -6 3 -8 6 -5 8 8
-14 37 -28 37 -5 0 -8 -6 -5 -12z"/>
<path d="M2140 2750 c0 -5 5 -10 11 -10 5 0 7 5 4 10 -3 6 -8 10 -11 10 -2 0
-4 -4 -4 -10z"/>
<path d="M2238 2753 c7 -3 16 -2 19 1 4 3 -2 6 -13 5 -11 0 -14 -3 -6 -6z"/>
<path d="M2072 2730 c-7 -11 -8 -20 -2 -20 5 0 14 9 20 20 6 11 7 20 3 20 -5
0 -14 -9 -21 -20z"/>
<path d="M3545 2740 c-3 -6 1 -13 10 -16 21 -9 26 -2 10 13 -9 8 -16 9 -20 3z"/>
<path d="M3830 2720 c0 -5 5 -10 11 -10 5 0 7 5 4 10 -3 6 -8 10 -11 10 -2 0
-4 -4 -4 -10z"/>
<path d="M3492 2695 c0 -16 2 -22 5 -12 2 9 2 23 0 30 -3 6 -5 -1 -5 -18z"/>
<path d="M3560 2686 c0 -9 5 -16 10 -16 6 0 10 4 10 9 0 6 -4 13 -10 16 -5 3
-10 -1 -10 -9z"/>
<path d="M3820 2690 c0 -5 7 -10 16 -10 8 0 12 5 9 10 -3 6 -10 10 -16 10 -5
0 -9 -4 -9 -10z"/>
<path d="M2095 2662 c-5 -4 -10 -17 -11 -29 0 -18 2 -20 13 -12 7 6 10 16 7
21 -4 6 0 14 7 19 8 5 10 9 4 9 -5 0 -14 -4 -20 -8z"/>
<path d="M3740 2659 c0 -5 5 -7 10 -4 6 3 10 8 10 11 0 2 -4 4 -10 4 -5 0 -10
-5 -10 -11z"/>
<path d="M3858 2663 c25 -5 30 -23 6 -23 -8 0 -12 -5 -8 -11 4 -7 10 -7 16 -1
6 6 17 8 24 5 21 -8 17 15 -5 27 -11 5 -28 9 -38 9 -13 -1 -12 -3 5 -6z"/>
<path d="M3590 2651 c0 -6 4 -13 10 -16 6 -3 7 1 4 9 -7 18 -14 21 -14 7z"/>
<path d="M2125 2640 c-3 -5 -1 -10 4 -10 6 0 11 5 11 10 0 6 -2 10 -4 10 -3 0
-8 -4 -11 -10z"/>
<path d="M3745 2629 c-4 -6 -4 -13 -1 -16 3 -4 6 -1 6 6 0 8 6 11 16 7 8 -3
12 -2 9 4 -8 13 -22 13 -30 -1z"/>
<path d="M3885 2610 c-3 -5 -1 -10 4 -10 6 0 11 5 11 10 0 6 -2 10 -4 10 -3 0
-8 -4 -11 -10z"/>
<path d="M3690 2592 c0 -5 7 -9 15 -9 8 0 12 4 9 9 -3 4 -9 8 -15 8 -5 0 -9
-4 -9 -8z"/>
<path d="M3730 2579 c-7 -11 -9 -23 -6 -27 3 -3 6 0 6 6 0 6 7 18 16 26 8 9
11 16 5 16 -6 0 -15 -9 -21 -21z"/>
<path d="M3781 2524 c0 -11 3 -14 6 -6 3 7 2 16 -1 19 -3 4 -6 -2 -5 -13z"/>
<path d="M4030 2490 c0 -5 5 -10 11 -10 5 0 7 5 4 10 -3 6 -8 10 -11 10 -2 0
-4 -4 -4 -10z"/>
<path d="M2173 2296 c4 -10 7 -22 7 -27 0 -5 4 -9 9 -9 12 0 2 38 -12 47 -7 4
-8 0 -4 -11z"/>
<path d="M2190 2215 c0 -8 -4 -15 -10 -15 -5 0 -10 5 -10 12 0 6 -3 8 -6 5 -4
-4 -1 -13 6 -21 10 -13 14 -13 26 -1 16 16 18 35 4 35 -5 0 -10 -7 -10 -15z"/>
<path d="M2064 2168 c3 -13 6 -30 6 -38 1 -12 3 -11 11 3 7 13 7 22 0 31 -6 7
-8 16 -4 19 3 4 1 7 -6 7 -9 0 -11 -8 -7 -22z"/>
<path d="M2206 2182 c-10 -16 9 -30 21 -17 10 10 9 14 -2 19 -8 3 -16 2 -19
-2z"/>
<path d="M2066 2034 c-4 -9 -4 -19 -1 -22 3 -3 5 1 5 9 0 12 2 12 10 -1 5 -8
11 -12 14 -10 2 3 -1 13 -9 23 -12 16 -13 16 -19 1z"/>
<path d="M2180 2010 c0 -5 7 -7 15 -4 8 4 15 8 15 10 0 2 -7 4 -15 4 -8 0 -15
-4 -15 -10z"/>
<path d="M2591 1824 c0 -11 3 -14 6 -6 3 7 2 16 -1 19 -3 4 -6 -2 -5 -13z"/>
<path d="M3435 1779 c-4 -6 -5 -12 -2 -15 2 -3 7 2 10 11 7 17 1 20 -8 4z"/>
<path d="M3375 1480 c-3 -5 -1 -10 4 -10 6 0 11 5 11 10 0 6 -2 10 -4 10 -3 0
-8 -4 -11 -10z"/>
<path d="M3465 1469 c-4 -6 -5 -12 -2 -15 2 -3 7 2 10 11 7 17 1 20 -8 4z"/>
<path d="M2430 1434 c0 -8 5 -12 10 -9 6 4 8 11 5 16 -9 14 -15 11 -15 -7z"/>
<path d="M3506 1428 c3 -5 10 -6 15 -3 13 9 11 12 -6 12 -8 0 -12 -4 -9 -9z"/>
<path d="M3320 1409 c12 -8 9 -10 -12 -6 -15 2 -25 0 -22 -4 3 -5 11 -9 19 -9
8 0 18 -7 23 -16 5 -10 14 -14 21 -9 9 5 7 11 -6 21 -17 13 -17 14 2 8 l20 -7
-20 16 c-11 9 -24 16 -30 17 -5 0 -3 -5 5 -11z"/>
<path d="M3384 1388 c-4 -7 -3 -8 4 -4 7 4 12 1 12 -10 0 -14 3 -14 15 -4 13
11 13 15 3 21 -18 12 -26 11 -34 -3z"/>
<path d="M3480 1370 c0 -5 7 -10 16 -10 8 0 12 5 9 10 -3 6 -10 10 -16 10 -5
0 -9 -4 -9 -10z"/>
<path d="M3600 1370 c0 -5 5 -10 10 -10 6 0 10 5 10 10 0 6 -4 10 -10 10 -5 0
-10 -4 -10 -10z"/>
<path d="M3857 1353 c-4 -3 -7 -11 -7 -17 0 -6 5 -5 12 2 6 6 9 14 7 17 -3 3
-9 2 -12 -2z"/>
<path d="M3784 1326 c-9 -10 -6 -13 16 -13 23 0 26 3 15 14 -16 16 -17 16 -31
-1z"/>
<path d="M991 3634 c0 -11 3 -14 6 -6 3 7 2 16 -1 19 -3 4 -6 -2 -5 -13z"/>
<path d="M1030 3570 c0 -6 7 -10 15 -10 8 0 15 2 15 4 0 2 -7 6 -15 10 -8 3
-15 1 -15 -4z"/>
<path d="M988 3543 c7 -3 16 -2 19 1 4 3 -2 6 -13 5 -11 0 -14 -3 -6 -6z"/>
<path d="M1025 3520 c-3 -5 -1 -10 4 -10 6 0 11 5 11 10 0 6 -2 10 -4 10 -3 0
-8 -4 -11 -10z"/>
<path d="M467 3473 c-10 -9 -9 -23 2 -23 5 0 11 7 15 15 5 15 -5 20 -17 8z"/>
<path d="M700 3300 c0 -5 5 -10 11 -10 5 0 7 5 4 10 -3 6 -8 10 -11 10 -2 0
-4 -4 -4 -10z"/>
<path d="M350 3269 c0 -5 5 -7 10 -4 6 3 10 8 10 11 0 2 -4 4 -10 4 -5 0 -10
-5 -10 -11z"/>
<path d="M681 3254 c0 -11 3 -14 6 -6 3 7 2 16 -1 19 -3 4 -6 -2 -5 -13z"/>
<path d="M412 3198 c-7 -7 -12 -18 -12 -25 0 -8 7 -6 20 7 11 11 20 22 20 25
0 9 -16 5 -28 -7z"/>
<path d="M435 3160 c-3 -5 -4 -10 -1 -10 2 0 12 -3 20 -6 12 -5 15 -2 10 10
-7 18 -20 21 -29 6z"/>
<path d="M4812 3068 c-18 -18 -15 -27 8 -25 22 1 24 6 12 24 -6 10 -11 10 -20
1z"/>
<path d="M4740 2891 c-13 -26 -13 -68 1 -77 8 -4 9 3 4 25 -5 24 -2 37 11 52
9 10 12 19 6 19 -6 0 -16 -9 -22 -19z"/>
<path d="M4760 2830 c0 -5 5 -10 11 -10 5 0 7 5 4 10 -3 6 -8 10 -11 10 -2 0
-4 -4 -4 -10z"/>
<path d="M4807 2819 c7 -7 15 -10 18 -7 3 3 -2 9 -12 12 -14 6 -15 5 -6 -5z"/>
<path d="M6261 2821 c-8 -5 -9 -11 -3 -15 5 -3 12 1 16 9 6 17 6 18 -13 6z"/>
<path d="M6300 2820 c-9 -6 -10 -10 -3 -10 6 0 15 5 18 10 8 12 4 12 -15 0z"/>
<path d="M6420 2794 c0 -14 3 -14 15 -4 8 7 15 14 15 16 0 2 -7 4 -15 4 -8 0
-15 -7 -15 -16z"/>
<path d="M6243 2738 c-2 -16 1 -18 10 -9 7 7 8 14 1 21 -6 6 -10 2 -11 -12z"/>
<path d="M6428 2753 c7 -3 16 -2 19 1 4 3 -2 6 -13 5 -11 0 -14 -3 -6 -6z"/>
<path d="M6501 2734 c0 -11 3 -14 6 -6 3 7 2 16 -1 19 -3 4 -6 -2 -5 -13z"/>
<path d="M6477 2705 c3 -8 9 -12 14 -9 12 7 11 11 -5 17 -10 4 -13 1 -9 -8z"/>
<path d="M6065 2690 c-3 -5 1 -10 10 -10 9 0 13 5 10 10 -3 6 -8 10 -10 10 -2
0 -7 -4 -10 -10z"/>
<path d="M6521 2684 c0 -11 3 -14 6 -6 3 7 2 16 -1 19 -3 4 -6 -2 -5 -13z"/>
<path d="M6101 2685 c0 -5 4 -18 7 -27 7 -16 8 -16 20 3 9 14 10 19 2 14 -7
-4 -16 -1 -21 6 -5 8 -8 10 -8 4z"/>
<path d="M5993 2657 c1 -5 7 -8 12 -7 5 1 12 -7 16 -17 6 -15 8 -13 8 7 1 19
-4 26 -19 26 -11 0 -19 -4 -17 -9z"/>
<path d="M6500 2642 c0 -18 5 -32 10 -32 6 0 8 11 4 28 -10 39 -14 40 -14 4z"/>
<path d="M6042 2640 c0 -14 2 -19 5 -12 2 6 2 18 0 25 -3 6 -5 1 -5 -13z"/>
<path d="M6530 2627 c0 -17 5 -27 15 -27 19 0 19 9 0 34 -14 19 -15 19 -15 -7z"/>
<path d="M5957 2601 c-4 -17 -3 -21 5 -13 5 5 8 16 6 23 -3 8 -7 3 -11 -10z"/>
<path d="M5980 2606 c0 -8 4 -17 9 -20 5 -4 7 3 4 14 -6 23 -13 26 -13 6z"/>
<path d="M5900 2540 c0 -5 -5 -10 -10 -10 -6 0 -21 -10 -33 -23 -25 -26 -74
-50 -87 -42 -5 3 -14 -4 -20 -15 -7 -13 -7 -20 0 -20 5 0 10 8 11 18 0 13 2
12 9 -5 5 -13 18 -23 29 -23 11 0 21 -6 24 -12 2 -7 8 -10 12 -6 12 12 -5 28
-31 28 -13 0 -24 5 -24 11 0 6 6 9 13 6 41 -15 57 -17 57 -8 0 6 -3 10 -7 10
-5 -1 -17 -1 -27 0 -17 1 -18 3 -7 14 11 9 14 9 18 0 6 -15 43 5 43 24 0 6 9
15 20 18 17 5 30 45 15 45 -3 0 -5 -4 -5 -10z"/>
<path d="M5913 2505 c-16 -7 -23 -18 -23 -37 0 -19 -5 -28 -16 -28 -8 0 -12
-4 -9 -10 3 -5 13 -10 21 -10 8 0 12 5 9 10 -8 13 1 13 27 -1 16 -9 19 -8 12
3 -5 7 -9 16 -9 20 0 3 -4 10 -9 15 -5 5 -6 3 -2 -4 4 -7 2 -13 -3 -13 -15 0
-14 37 2 43 6 2 17 -8 24 -22 9 -22 11 -23 11 -6 1 38 -11 51 -35 40z"/>
<path d="M6600 2468 c-12 -22 -12 -22 6 -6 10 10 15 20 12 24 -4 3 -12 -5 -18
-18z"/>
<path d="M5730 2471 c0 -7 -4 -9 -10 -6 -5 3 -10 2 -10 -4 0 -5 4 -12 9 -15
10 -6 25 24 16 32 -3 3 -5 0 -5 -7z"/>
<path d="M5642 2450 c0 -14 2 -19 5 -12 2 6 2 18 0 25 -3 6 -5 1 -5 -13z"/>
<path d="M6600 2430 c0 -5 5 -10 11 -10 5 0 7 5 4 10 -3 6 -8 10 -11 10 -2 0
-4 -4 -4 -10z"/>
<path d="M6617 2399 c7 -7 15 -10 18 -7 3 3 -2 9 -12 12 -14 6 -15 5 -6 -5z"/>
<path d="M5874 2385 c4 -10 -1 -15 -17 -16 -13 0 -16 -3 -8 -6 11 -5 11 -7 0
-14 -10 -6 -3 -9 21 -9 23 0 30 3 22 9 -11 6 -10 10 3 15 14 5 15 9 5 21 -16
19 -34 19 -26 0z"/>
<path d="M5935 2390 c3 -5 8 -10 11 -10 2 0 4 5 4 10 0 6 -5 10 -11 10 -5 0
-7 -4 -4 -10z"/>
<path d="M5966 2392 c-4 -7 -5 -15 -2 -20 2 -4 -2 -18 -11 -32 -8 -14 -12 -18
-9 -8 2 9 -2 24 -10 35 -13 17 -14 17 -11 -7 2 -14 9 -35 15 -48 7 -12 10 -28
6 -34 -4 -7 -3 -8 5 -4 7 4 9 17 6 29 -5 19 -4 19 9 -3 10 -15 15 -19 16 -10
0 11 2 12 8 3 4 -7 13 -9 21 -4 11 7 10 11 -5 20 -17 10 -17 11 6 12 17 1 20
3 7 6 -10 3 -14 10 -11 16 4 7 3 8 -2 4 -5 -5 -13 6 -19 24 -7 21 -14 29 -19
21z m16 -74 c-13 -13 -24 5 -16 27 7 16 8 16 17 0 6 -11 6 -20 -1 -27z"/>
<path d="M5805 2380 c-3 -5 1 -10 10 -10 9 0 13 5 10 10 -3 6 -8 10 -10 10 -2
0 -7 -4 -10 -10z"/>
<path d="M5840 2320 c0 -5 5 -10 11 -10 5 0 7 5 4 10 -3 6 -8 10 -11 10 -2 0
-4 -4 -4 -10z"/>
<path d="M5160 2259 c0 -5 5 -7 10 -4 6 3 10 8 10 11 0 2 -4 4 -10 4 -5 0 -10
-5 -10 -11z"/>
<path d="M5915 2260 c-3 -5 -1 -10 4 -10 6 0 11 5 11 10 0 6 -2 10 -4 10 -3 0
-8 -4 -11 -10z"/>
<path d="M6000 2266 c0 -2 7 -6 15 -10 8 -3 15 -1 15 4 0 6 -7 10 -15 10 -8 0
-15 -2 -15 -4z"/>
<path d="M6750 2230 c0 -6 7 -10 15 -10 8 0 15 2 15 4 0 2 -7 6 -15 10 -8 3
-15 1 -15 -4z"/>
<path d="M5916 2192 c-3 -5 1 -9 9 -9 8 0 12 4 9 9 -3 4 -7 8 -9 8 -2 0 -6 -4
-9 -8z"/>
<path d="M6776 2187 c3 -10 9 -15 12 -12 3 3 0 11 -7 18 -10 9 -11 8 -5 -6z"/>
<path d="M6760 2150 c0 -5 5 -10 10 -10 6 0 10 5 10 10 0 6 -4 10 -10 10 -5 0
-10 -4 -10 -10z"/>
<path d="M6730 2126 c0 -2 7 -6 15 -10 8 -3 15 -1 15 4 0 6 -7 10 -15 10 -8 0
-15 -2 -15 -4z"/>
<path d="M6857 2123 c-11 -10 -8 -46 4 -63 9 -13 10 -12 5 3 -3 9 -1 28 4 42
9 23 2 33 -13 18z"/>
<path d="M6805 2100 c-16 -17 -16 -21 -1 -41 11 -17 13 -26 4 -36 -8 -10 -7
-12 5 -8 15 7 32 53 22 63 -3 3 -5 -3 -5 -14 0 -16 -2 -17 -10 -4 -12 19 -13
43 -1 35 5 -3 12 -1 15 4 12 19 -12 20 -29 1z"/>
<path d="M5985 2090 c-16 -17 -16 -20 -3 -15 9 4 19 13 22 21 7 19 2 18 -19
-6z"/>
<path d="M6725 2090 c-10 -17 6 -31 27 -24 16 5 20 3 15 -9 -4 -11 -2 -14 9
-10 7 3 14 -1 14 -8 0 -7 3 -9 7 -6 7 7 -45 67 -58 67 -4 0 -11 -4 -14 -10z
m25 -10 c0 -5 -4 -10 -10 -10 -5 0 -10 5 -10 10 0 6 5 10 10 10 6 0 10 -4 10
-10z"/>
<path d="M5850 2035 c0 -8 8 -16 18 -16 9 -1 24 -2 32 -3 8 -1 20 -4 26 -8 7
-5 14 -2 17 6 4 10 -3 13 -30 12 -21 -1 -37 4 -40 11 -7 18 -23 16 -23 -2z"/>
<path d="M5991 2037 c-8 -10 -7 -14 2 -14 8 0 14 6 14 14 0 7 -1 13 -2 13 -2
0 -8 -6 -14 -13z"/>
<path d="M6955 2040 c3 -5 8 -10 11 -10 2 0 4 5 4 10 0 6 -5 10 -11 10 -5 0
-7 -4 -4 -10z"/>
<path d="M6843 2025 c0 -7 6 -11 14 -8 7 3 13 6 13 8 0 2 -6 5 -13 8 -8 3 -14
-1 -14 -8z"/>
<path d="M6046 2014 c-9 -24 -7 -28 7 -15 10 8 17 7 26 -2 10 -9 12 -9 9 3 -6
30 -33 39 -42 14z"/>
<path d="M5815 2011 c-3 -5 -1 -12 5 -16 5 -3 10 1 10 9 0 18 -6 21 -15 7z"/>
<path d="M5994 2001 c7 -10 -26 -28 -46 -25 -10 1 -18 -2 -18 -8 0 -5 -7 -2
-16 7 -20 20 -32 11 -14 -10 8 -9 8 -15 2 -15 -6 0 -14 5 -17 10 -3 6 -11 10
-16 10 -6 0 -8 -4 -5 -9 4 -5 3 -11 -1 -14 -5 -2 -3 -3 2 -2 6 1 19 -1 30 -5
11 -4 26 -3 33 2 9 8 12 6 12 -6 0 -10 5 -14 11 -11 6 4 8 14 4 23 -3 9 -3 13
1 9 4 -4 13 -2 21 5 10 8 17 8 26 -1 9 -10 8 -11 -5 -6 -11 4 -20 0 -27 -14
-18 -33 -12 -45 10 -20 16 19 19 20 15 6 -5 -15 6 -49 20 -66 7 -8 44 32 44
48 0 13 2 14 9 2 7 -11 10 -10 14 5 5 18 5 18 6 0 0 -11 -6 -27 -13 -35 -11
-12 -12 -21 -5 -31 8 -12 9 -12 7 4 -2 12 4 20 15 21 9 2 17 -1 17 -6 0 -6 5
-7 10 -4 15 10 12 25 -6 25 -11 0 -14 6 -9 21 5 14 1 25 -12 34 -10 7 -15 17
-10 21 4 4 7 3 7 -3 0 -7 9 -9 22 -5 21 5 21 6 2 13 -36 14 -57 11 -49 -8 5
-15 4 -16 -6 -5 -7 6 -21 12 -31 12 -10 0 -18 5 -18 10 0 6 5 10 12 10 6 0 8
3 4 7 -9 9 -37 13 -32 4z m26 -93 c0 -9 3 -8 10 2 14 22 23 5 10 -20 -11 -21
-12 -21 -25 -3 -17 22 -19 33 -5 33 6 0 10 -6 10 -12z"/>
<path d="M6700 1998 c0 -4 4 -8 9 -8 6 0 12 4 15 8 3 5 -1 9 -9 9 -8 0 -15 -4
-15 -9z"/>
<path d="M6807 1993 c-10 -10 -8 -33 3 -33 5 0 7 7 4 15 -8 19 10 20 25 1 9
-11 9 -15 -1 -18 -7 -3 -12 -23 -13 -46 -1 -47 2 -48 15 -3 6 22 5 31 -3 32
-7 0 -2 5 10 11 l22 11 -23 18 c-27 21 -30 22 -39 12z"/>
<path d="M6728 1973 c6 -2 18 -2 25 0 6 3 1 5 -13 5 -14 0 -19 -2 -12 -5z"/>
<path d="M7040 1921 c0 -5 5 -13 10 -16 6 -3 10 -2 10 4 0 5 -4 13 -10 16 -5
3 -10 2 -10 -4z"/>
<path d="M6120 1910 c0 -5 5 -10 10 -10 6 0 10 5 10 10 0 6 -4 10 -10 10 -5 0
-10 -4 -10 -10z"/>
<path d="M5910 1876 c0 -2 7 -7 16 -10 8 -3 12 -2 9 4 -6 10 -25 14 -25 6z"/>
<path d="M6141 1844 c0 -11 3 -14 6 -6 3 7 2 16 -1 19 -3 4 -6 -2 -5 -13z"/>
<path d="M6740 1846 c0 -2 7 -9 15 -16 13 -11 14 -10 9 4 -5 14 -24 23 -24 12z"/>
<path d="M6850 1831 c0 -5 7 -12 16 -15 14 -5 15 -4 4 9 -14 17 -20 19 -20 6z"/>
<path d="M6043 1822 c-7 -4 -9 -13 -4 -21 6 -9 10 -7 14 8 3 12 4 21 4 21 -1
0 -7 -4 -14 -8z"/>
<path d="M6071 1814 c0 -11 3 -14 6 -6 3 7 2 16 -1 19 -3 4 -6 -2 -5 -13z"/>
<path d="M7090 1826 c0 -2 7 -7 16 -10 8 -3 12 -2 9 4 -6 10 -25 14 -25 6z"/>
<path d="M7276 1805 c4 -8 10 -15 15 -15 5 0 9 7 9 15 0 8 -7 15 -15 15 -9 0
-12 -6 -9 -15z"/>
<path d="M7280 1769 c0 -5 5 -7 10 -4 6 3 10 8 10 11 0 2 -4 4 -10 4 -5 0 -10
-5 -10 -11z"/>
<path d="M5965 1749 c-4 -6 -4 -13 -1 -16 3 -4 6 -1 6 6 0 7 5 9 12 5 7 -4 8
-3 4 4 -9 15 -13 15 -21 1z"/>
<path d="M6044 1743 c20 -24 46 -31 46 -12 0 5 -5 7 -11 4 -5 -4 -20 1 -32 12
l-22 18 19 -22z"/>
<path d="M7280 1740 c19 -13 30 -13 30 0 0 6 -10 10 -22 10 -19 0 -20 -2 -8
-10z"/>
<path d="M5530 1714 c0 -8 5 -12 10 -9 6 4 8 11 5 16 -9 14 -15 11 -15 -7z"/>
<path d="M5982 1725 c4 -5 2 -15 -5 -24 -10 -14 -10 -14 5 -3 13 10 17 10 22
0 3 -7 5 -4 3 6 -1 11 -9 21 -17 24 -8 3 -12 1 -8 -3z"/>
<path d="M6112 1708 c-16 -16 -15 -25 2 -25 8 0 12 6 8 15 -4 11 -1 13 8 7 9
-5 11 -4 6 3 -9 15 -9 15 -24 0z"/>
<path d="M7215 1710 c3 -5 8 -10 11 -10 2 0 4 5 4 10 0 6 -5 10 -11 10 -5 0
-7 -4 -4 -10z"/>
<path d="M6920 1701 c0 -6 4 -13 10 -16 6 -3 7 1 4 9 -7 18 -14 21 -14 7z"/>
<path d="M6710 1681 c0 -5 7 -12 16 -15 14 -5 15 -4 4 9 -14 17 -20 19 -20 6z"/>
<path d="M7275 1678 c6 -14 2 -18 -16 -19 -19 -1 -20 -2 -5 -6 25 -7 44 13 27
30 -10 10 -11 9 -6 -5z"/>
<path d="M6010 1670 c0 -5 5 -10 11 -10 5 0 7 5 4 10 -3 6 -8 10 -11 10 -2 0
-4 -4 -4 -10z"/>
<path d="M6850 1676 c0 -2 7 -6 15 -10 8 -3 15 -1 15 4 0 6 -7 10 -15 10 -8 0
-15 -2 -15 -4z"/>
<path d="M5536 1641 c-4 -5 3 -7 14 -4 23 6 26 13 6 13 -8 0 -17 -4 -20 -9z"/>
<path d="M6093 1633 c1 -22 9 -26 78 -38 16 -3 31 1 39 10 11 13 6 14 -35 8
-43 -5 -50 -4 -66 18 -18 24 -18 24 -16 2z"/>
<path d="M6130 1636 c0 -2 9 -6 20 -9 11 -3 20 -1 20 4 0 5 -9 9 -20 9 -11 0
-20 -2 -20 -4z"/>
<path d="M7200 1625 c0 -8 5 -15 10 -15 6 0 10 4 10 9 0 5 8 12 18 14 10 3 6
5 -10 6 -19 1 -28 -4 -28 -14z"/>
<path d="M6382 1610 c0 -14 2 -19 5 -12 2 6 2 18 0 25 -3 6 -5 1 -5 -13z"/>
<path d="M6270 1600 c0 -8 -10 -9 -30 -5 -17 4 -30 2 -30 -3 0 -5 14 -12 30
-14 17 -3 30 -1 30 4 0 5 5 6 10 3 6 -3 10 -2 10 4 0 5 -4 13 -10 16 -5 3 -10
1 -10 -5z"/>
<path d="M6824 1566 c-1 -23 1 -35 3 -28 3 6 8 10 12 8 4 -3 7 10 7 28 -1 47
-21 40 -22 -8z"/>
<path d="M6451 1584 c0 -11 3 -14 6 -6 2 6 9 12 14 12 6 0 8 -4 5 -9 -3 -4 3
-18 14 -31 14 -17 17 -27 10 -46 -6 -15 -6 -24 0 -24 6 0 10 7 10 15 0 9 6 12
15 9 8 -4 15 -1 15 5 0 6 -4 11 -8 11 -5 0 -14 11 -20 25 -9 19 -9 25 0 25 20
0 -5 18 -34 25 -23 6 -28 4 -27 -11z"/>
<path d="M6408 1583 c7 -3 16 -2 19 1 4 3 -2 6 -13 5 -11 0 -14 -3 -6 -6z"/>
<path d="M7146 1582 c-2 -4 -1 -13 3 -20 4 -8 11 -5 19 8 10 16 10 20 -2 20
-8 0 -17 -4 -20 -8z"/>
<path d="M5646 1555 c8 -37 14 -45 14 -19 0 10 -5 26 -10 34 -8 11 -9 7 -4
-15z"/>
<path d="M6300 1575 c0 -18 19 -40 26 -32 4 4 0 15 -9 24 -9 10 -17 13 -17 8z"/>
<path d="M6380 1559 c0 -5 5 -7 10 -4 6 3 10 8 10 11 0 2 -4 4 -10 4 -5 0 -10
-5 -10 -11z"/>
<path d="M7085 1560 c-3 -5 1 -10 10 -10 9 0 13 5 10 10 -3 6 -8 10 -10 10 -2
0 -7 -4 -10 -10z"/>
<path d="M7184 1557 c-8 -9 -7 -17 4 -27 14 -13 15 -12 9 3 -3 9 -2 17 3 17 6
0 10 5 10 10 0 14 -13 12 -26 -3z"/>
<path d="M5851 1543 c-6 -11 -11 -13 -11 -5 0 7 -5 10 -11 6 -8 -5 -8 -9 2
-14 21 -12 34 -11 34 3 0 6 9 11 20 9 17 -2 17 -1 5 7 -21 15 -28 14 -39 -6z"/>
<path d="M6273 1545 c0 -8 7 -15 15 -15 12 0 12 3 2 15 -7 8 -13 15 -15 15 -1
0 -2 -7 -2 -15z"/>
<path d="M6548 1553 c-22 -6 -24 -23 -2 -23 8 0 13 -4 9 -9 -3 -5 -1 -12 4
-16 6 -3 9 7 8 25 -1 16 -2 29 -2 29 0 -1 -8 -3 -17 -6z"/>
<path d="M6865 1550 c-3 -5 -1 -10 4 -10 6 0 11 5 11 10 0 6 -2 10 -4 10 -3 0
-8 -4 -11 -10z"/>
<path d="M5678 1543 c7 -3 16 -2 19 1 4 3 -2 6 -13 5 -11 0 -14 -3 -6 -6z"/>
<path d="M6462 1526 c10 -7 15 -16 11 -19 -3 -4 -1 -7 5 -7 7 0 12 9 12 20 0
14 -7 20 -22 20 -21 -1 -22 -2 -6 -14z"/>
<path d="M6915 1530 c28 -12 37 -12 30 0 -3 6 -16 10 -28 9 -21 0 -21 -1 -2
-9z"/>
<path d="M7037 1520 c3 -11 9 -20 14 -20 11 0 11 3 3 24 -9 23 -23 20 -17 -4z"/>
<path d="M7140 1530 c0 -5 5 -10 10 -10 6 0 10 5 10 10 0 6 -4 10 -10 10 -5 0
-10 -4 -10 -10z"/>
<path d="M6750 1520 c0 -5 10 -10 23 -10 18 0 19 2 7 10 -19 13 -30 13 -30 0z"/>
<path d="M6940 1491 c0 -6 9 -9 20 -8 11 1 20 5 20 9 0 4 -9 8 -20 8 -11 0
-20 -4 -20 -9z"/>
<path d="M7010 1483 c0 -5 5 -15 11 -23 9 -13 10 -13 6 2 -3 9 -1 19 6 22 7 2
4 5 -5 5 -10 1 -18 -2 -18 -6z"/>
<path d="M6885 1469 c4 -6 9 -8 12 -5 9 9 33 -22 33 -43 0 -25 -17 -28 -23 -3
-4 13 -5 12 -6 -5 -2 -36 28 -39 42 -3 4 11 6 10 6 -4 1 -15 4 -16 16 -6 12
10 15 10 15 -1 1 -11 2 -11 9 1 16 27 22 60 13 60 -5 0 -12 -9 -15 -20 -3 -13
-10 -18 -21 -14 -9 3 -14 10 -11 15 3 4 -8 15 -24 24 -35 17 -55 20 -46 4z"/>
<path d="M5675 1460 c-3 -6 1 -7 9 -4 18 7 21 14 7 14 -6 0 -13 -4 -16 -10z"/>
<path d="M6180 1456 c0 -18 19 -31 28 -21 4 4 1 10 -6 12 -6 3 -10 9 -6 14 3
5 0 9 -5 9 -6 0 -11 -6 -11 -14z"/>
<path d="M6960 1461 c0 -6 5 -13 10 -16 6 -3 10 1 10 9 0 9 -4 16 -10 16 -5 0
-10 -4 -10 -9z"/>
<path d="M6463 1453 c10 -9 57 -10 57 -1 0 4 -14 8 -32 8 -17 0 -28 -3 -25 -7z"/>
<path d="M5630 1430 c-8 -5 -11 -12 -7 -17 5 -4 12 -1 17 7 6 8 10 10 10 5 0
-6 -6 -17 -12 -24 -11 -10 -10 -11 5 -6 9 4 17 16 17 26 0 21 -8 23 -30 9z"/>
<path d="M6675 1427 c-4 -10 -5 -21 -1 -24 10 -10 18 4 13 24 -4 17 -4 17 -12
0z"/>
<path d="M5467 1353 c-12 -11 -8 -23 8 -23 8 0 15 7 15 15 0 16 -12 20 -23 8z"/>
<path d="M5531 1340 c-2 -14 -5 -19 -8 -12 -2 6 -9 9 -15 6 -7 -4 -6 -9 1 -13
8 -5 4 -18 -12 -43 l-24 -35 22 11 c13 6 21 16 18 22 -2 6 3 19 12 28 9 9 14
26 12 38 -4 22 -4 22 -6 -2z"/>
<path d="M5440 1320 c0 -5 5 -10 11 -10 5 0 7 5 4 10 -3 6 -8 10 -11 10 -2 0
-4 -4 -4 -10z"/>
<path d="M5450 1279 c0 -5 5 -7 10 -4 6 3 10 8 10 11 0 2 -4 4 -10 4 -5 0 -10
-5 -10 -11z"/>
<path d="M4891 1244 c0 -11 3 -14 6 -6 3 7 2 16 -1 19 -3 4 -6 -2 -5 -13z"/>
<path d="M5455 1220 c-3 -5 -1 -10 4 -10 6 0 11 5 11 10 0 6 -2 10 -4 10 -3 0
-8 -4 -11 -10z"/>
<path d="M9345 821 c-8 -14 28 -31 66 -31 l32 0 -26 20 c-27 21 -62 26 -72 11z"/>
<path d="M9300 796 c0 -2 11 -6 25 -8 13 -3 22 -1 19 3 -5 9 -44 13 -44 5z"/>
<path d="M8744 588 l-19 -23 23 19 c12 11 22 21 22 23 0 8 -8 2 -26 -19z"/>
<path d="M8778 563 c7 -3 16 -2 19 1 4 3 -2 6 -13 5 -11 0 -14 -3 -6 -6z"/>
<path d="M8772 320 c0 -19 2 -27 5 -17 2 9 2 25 0 35 -3 9 -5 1 -5 -18z"/>
<path d="M8890 156 c0 -2 8 -10 18 -17 15 -13 16 -12 3 4 -13 16 -21 21 -21
13z"/>
<path d="M41 2274 c0 -11 3 -14 6 -6 3 7 2 16 -1 19 -3 4 -6 -2 -5 -13z"/>
<path d="M6 2248 c3 -41 11 -45 16 -9 2 17 0 32 -7 35 -7 2 -10 -7 -9 -26z"/>
<path d="M15 2180 c3 -5 8 -10 11 -10 2 0 4 5 4 10 0 6 -5 10 -11 10 -5 0 -7
-4 -4 -10z"/>
</g>
</svg>
